<?xml version="1.0" encoding="UTF-8"?>
<!DOCTYPE svg PUBLIC "-//W3C//DTD SVG 1.1//EN" "http://www.w3.org/Graphics/SVG/1.1/DTD/svg11.dtd">
<!-- Creator: CorelDRAW X8 -->
<svg xmlns="http://www.w3.org/2000/svg" xml:space="preserve" width="98.6024mm" height="16.4498mm" version="1.1" style="shape-rendering:geometricPrecision; text-rendering:geometricPrecision; image-rendering:optimizeQuality; fill-rule:evenodd; clip-rule:evenodd"
viewBox="0 0 9860 1645"
 xmlns:xlink="http://www.w3.org/1999/xlink">
 <defs>
  <style type="text/css">
   <![CDATA[
    .fil0 {fill:white}
   ]]>
  </style>
 </defs>
 <g id="Слой_x0020_1">
  <metadata id="CorelCorpID_0Corel-Layer"/>
  <g id="_2708016910464">
   <g>
    <path class="fil0" d="M9400 343l-411 0 -460 1264 255 0 112 -307 597 0 112 307 255 0 -460 -1264zm-431 757l225 -620 226 620 -451 0z"/>
    <path class="fil0" d="M7671 1099c-3,297 170,341 278,341 108,0 281,-44 278,-341l0 -756 253 0 0 756c0,433 -285,546 -531,546 -246,0 -531,-113 -531,-546l0 -84 253 0 0 84z"/>
    <polygon class="fil0" points="7292,1607 7292,343 7039,343 7039,1267 6402,343 6111,343 6111,1607 6364,1607 6364,684 7001,1607 "/>
    <rect class="fil0" x="5669" y="343" width="253" height="1264"/>
    <polygon class="fil0" points="5479,1607 5479,343 5226,343 5226,1267 4589,343 4298,343 4298,1607 4551,1607 4551,684 5188,1607 "/>
   </g>
   <g>
    <path class="fil0" d="M3792 728l-728 729c-201,201 -527,201 -728,0 -201,-201 -201,-528 0,-729l728 -728 728 728z"/>
    <polygon class="fil0" points="2336,728 1457,1607 0,1607 1607,0 "/>
   </g>
  </g>
 </g>
</svg>
