<svg width="837" height="530" viewBox="0 0 837 530" fill="none" xmlns="http://www.w3.org/2000/svg">
<g opacity="0.4" clip-path="url(#clip0_983_3883)">
<path d="M909.621 21.1068C832.179 370.397 490.425 841.067 383.976 656.374C250.914 425.508 989.012 504.505 893.877 324.581C866.078 272.007 782.335 574.215 458.741 510.016C135.148 445.817 -115.616 416.177 291.692 342.967C699 269.757 1216.24 89.6028 734.638 156.561C253.04 223.52 137.274 443.691 369.251 420.525C601.227 397.36 683.038 470.666 728.228 333.003C773.417 195.34 659.999 22.389 491.744 122.034C323.49 221.679 107.222 405.134 161.17 497.354C215.118 589.573 419.798 677.229 499.488 597.539C579.178 517.849 512.887 -0.182488 308.189 51.6884C100.731 104.259 147.344 617.987 52.6595 714.66" stroke="white" stroke-width="2" stroke-linecap="round"/>
</g>
<defs>
<clipPath id="clip0_983_3883">
<rect width="616" height="921" fill="white" transform="translate(921 -86) rotate(90)"/>
</clipPath>
</defs>
</svg>
