<svg xmlns="http://www.w3.org/2000/svg" xmlns:xlink="http://www.w3.org/1999/xlink" width="168.643" height="168.643" viewBox="0 0 168.643 168.643"><defs><filter id="a" x="0" y="0" width="168.643" height="168.643" filterUnits="userSpaceOnUse"><feOffset dy="3" input="SourceAlpha"/><feGaussianBlur stdDeviation="3" result="b"/><feFlood flood-color="#414040" flood-opacity="0.553"/><feComposite operator="in" in2="b"/><feComposite in="SourceGraphic"/></filter></defs><g transform="translate(9 6)"><g transform="matrix(1, 0, 0, 1, -9, -6)" filter="url(#a)"><ellipse cx="75.321" cy="75.321" rx="75.321" ry="75.321" transform="translate(9 6)" fill="#1eb1ed"/></g><g transform="translate(30.128 31.384)"><path d="M123.243,219.149a5.165,5.165,0,0,0,1.7-3.81,5.222,5.222,0,1,0-10.445,0,5.165,5.165,0,0,0,1.7,3.81L97.22,257.467H91v5.222h9.448l16.665-33.677v28.455H111.89v5.222h15.667v-5.222h-5.222V229.013L139,262.69h9.448v-5.222h-6.22Z" transform="translate(-75.159 -173.56)" fill="#fff"/><path d="M411.373,1.469l1.352,5.044-5.046,1.352,6.759,25.223,5.047-1.352,1.352,5.044,5.044-1.352L416.417.117Z" transform="translate(-336.709 -0.117)" fill="#fff"/><path d="M11.8,170.784,9.1,160.7l5.046-1.353,1.352,5.046,5.044-1.352L16.486,147.9l-5.044,1.351,1.351,5.045-5.046,1.353-2.7-10.09L0,146.913l6.758,25.223Z" transform="translate(0 -120.243)" fill="#fff"/><path d="M130.259,87.786a10.319,10.319,0,0,1-.4-2.721,10.421,10.421,0,0,1,20.5-2.665l18.062-4.793-6.759-25.223L115.912,64.551l6.758,25.222Z" transform="translate(-95.734 -43.286)" fill="#fff"/></g></g></svg>