<svg xmlns="http://www.w3.org/2000/svg" xmlns:xlink="http://www.w3.org/1999/xlink" width="168.286" height="168.286" viewBox="0 0 168.286 168.286"><defs><filter id="a" x="0" y="0" width="168.286" height="168.286" filterUnits="userSpaceOnUse"><feOffset dy="3" input="SourceAlpha"/><feGaussianBlur stdDeviation="3" result="b"/><feFlood flood-color="#414040" flood-opacity="0.553"/><feComposite operator="in" in2="b"/><feComposite in="SourceGraphic"/></filter></defs><g transform="translate(916 -1782)"><g transform="matrix(1, 0, 0, 1, -916, 1782)" filter="url(#a)"><path d="M75.143,0A75.143,75.143,0,1,1,0,75.143,75.143,75.143,0,0,1,75.143,0Z" transform="translate(9 6)" fill="#93cf58"/></g><g transform="translate(-873.186 1821.188)"><path d="M42.07,47.062,23.988,14.343A2.609,2.609,0,0,0,21.681,13a2.566,2.566,0,0,0-2.273,1.412L16.48,20.129,30.187,44.513a7.643,7.643,0,0,1,.517,6.372H39.8a2.6,2.6,0,0,0,2.239-1.274,2.677,2.677,0,0,0,.034-2.549Z" transform="translate(40.287 31.773)" fill="#fff"/><path d="M65.961,43.728,49.463,14.35l-6.578,5.579a7.753,7.753,0,0,1-4.994,1.825,7.663,7.663,0,0,1-5.166-1.963,7.663,7.663,0,0,1-5.166,1.963,7.76,7.76,0,0,1-5.028-1.86l-6.268-5.3L.316,43.762a2.586,2.586,0,0,0,.034,2.549A2.644,2.644,0,0,0,2.59,47.585H63.722a2.6,2.6,0,0,0,2.239-1.274A2.652,2.652,0,0,0,65.961,43.728Z" transform="translate(0.003 35.073)" fill="#fff"/><path d="M31.137,17.22h-19.8A2.584,2.584,0,0,1,8.75,14.637V2.583A2.584,2.584,0,0,1,11.333,0h19.8A2.585,2.585,0,0,1,33.1,4.267L29.373,8.61,33.1,12.957a2.582,2.582,0,0,1-1.963,4.264Z" transform="translate(21.395)" fill="#fff"/><path d="M11.333,27.553A2.584,2.584,0,0,1,8.75,24.97V2.583a2.583,2.583,0,1,1,5.166,0V24.97A2.584,2.584,0,0,1,11.333,27.553Z" transform="translate(21.395)" fill="#fff"/><path d="M33.554,28.964l-7.336,6.2a2.548,2.548,0,0,1-3.479-.138L19.4,31.685l-3.341,3.341a2.555,2.555,0,0,1-3.479.138L5.45,29.17,8,24.555l9.127-16.7A2.567,2.567,0,0,1,19.4,6.508a2.4,2.4,0,0,1,2.239,1.309l9.333,16.566Z" transform="translate(13.329 15.878)" fill="#fff"/></g></g></svg>