<svg xmlns="http://www.w3.org/2000/svg" xmlns:xlink="http://www.w3.org/1999/xlink" width="168.604" height="168.604" viewBox="0 0 168.604 168.604"><defs><filter id="a" x="0" y="0" width="168.604" height="168.604" filterUnits="userSpaceOnUse"><feOffset dy="3" input="SourceAlpha"/><feGaussianBlur stdDeviation="3" result="b"/><feFlood flood-color="#414040" flood-opacity="0.553"/><feComposite operator="in" in2="b"/><feComposite in="SourceGraphic"/></filter></defs><g transform="translate(916 -1782)"><g transform="matrix(1, 0, 0, 1, -916, 1782)" filter="url(#a)"><path d="M75.3,0A75.3,75.3,0,1,1,0,75.3,75.3,75.3,0,0,1,75.3,0Z" transform="translate(9 6)" fill="#febf2c"/></g><g transform="translate(-877.18 1821.258)"><path d="M376.2,192.532l8.261-11.015a2.99,2.99,0,0,0-2.392-4.783H366.063a2.99,2.99,0,0,0-2.392,1.2l-9.607,12.809a2.99,2.99,0,0,0,0,3.588l9.607,12.809a2.99,2.99,0,0,0,2.392,1.2h16.011a2.99,2.99,0,0,0,2.392-4.783Z" transform="translate(-283.018 -151.115)" fill="#fff"/><path d="M132.406,162.106h6.919a22.628,22.628,0,1,0,0,5.979h-6.919a15.8,15.8,0,1,1,0-5.979Z" transform="translate(-75.479 -123.679)" fill="#fff"/><path d="M75.871,107.807l-7.177-9.569a28.608,28.608,0,1,1,0-17.243l7.176-9.568a8.915,8.915,0,0,1,1.82-1.808,41.417,41.417,0,1,0,0,40A8.912,8.912,0,0,1,75.871,107.807Z" transform="translate(0 -48.2)" fill="#fff"/><path d="M168.352,213.563H177.7a9.819,9.819,0,1,0,0,5.979h-9.352a2.99,2.99,0,0,1,0-5.979Z" transform="translate(-126.936 -175.136)" fill="#fff"/></g></g></svg>