<svg width="30" height="30" viewBox="0 0 30 30" fill="none" xmlns="http://www.w3.org/2000/svg">
<path d="M14 0L14 3.48" stroke="white"/>
<path d="M26.6357 27.8398H0.999742" stroke="white" stroke-width="2"/>
<path d="M19 28V17C19 14.2386 16.7614 12 14 12V12C11.2386 12 9 14.2386 9 17V28" stroke="white" stroke-width="2"/>
<path d="M17 13V10C17 8.34315 15.6569 7 14 7V7C12.3431 7 11 8.34315 11 10V13" stroke="white" stroke-width="2"/>
<path d="M16 8V5C16 3.89543 15.1046 3 14 3V3C12.8954 3 12 3.89543 12 5V8" stroke="white"/>
<path d="M12.5 17C12.5 16.1716 13.1716 15.5 14 15.5C14.8284 15.5 15.5 16.1716 15.5 17V27.5H12.5V17Z" stroke="white"/>
</svg>
