<svg width="780" height="204" viewBox="0 0 780 204" fill="none" xmlns="http://www.w3.org/2000/svg">
<path d="M442.171 66.495C442.171 42.6881 442.564 20.5231 443.746 0L383.503 11.9034V17.6499L389.409 18.4708C393.741 18.8813 396.497 20.5231 398.072 22.9859C399.647 25.8592 400.828 29.9638 401.615 36.1207C402.403 48.0241 403.19 75.1147 402.797 117.803C402.797 160.08 402.403 186.761 401.615 197.022C423.271 201.948 440.202 204 452.802 204C476.426 204 494.932 197.022 508.319 182.656C521.706 168.7 528.794 148.998 528.794 124.781C528.794 105.489 523.675 89.4809 513.438 76.7565C503.2 64.0322 490.207 57.8753 474.851 57.8753C464.614 57.8753 453.983 60.7485 442.171 66.495ZM443.352 192.917C442.564 179.783 441.777 140.378 441.777 75.9356C445.321 74.7042 450.045 73.8833 455.952 73.8833C465.401 73.8833 472.882 78.8089 478.395 89.0704C483.907 99.332 486.663 111.646 486.663 127.243C486.663 146.535 483.513 162.133 477.214 175.268C470.914 187.992 463.039 194.559 453.195 194.559C450.045 193.738 446.896 193.328 443.352 192.917ZM157.496 4.10463H0V12.3139L8.26855 13.1348C14.5684 14.3662 18.8995 16.829 21.6557 20.5231C24.4119 24.6278 25.9869 31.1952 26.3806 40.2254C29.5305 84.5553 29.5305 126.012 26.3806 164.185C25.5931 173.215 24.0182 179.783 21.6557 183.887C18.8995 187.992 14.5684 190.455 8.26855 191.276L0 192.507V200.716H101.585V192.507L90.9541 191.686C84.6542 190.865 80.3231 187.992 77.5669 184.298C74.8107 180.193 73.2357 173.626 72.842 164.596C71.6608 148.177 70.8733 129.296 70.8733 108.362L92.1353 108.773C103.554 109.183 111.429 118.213 115.366 136.274H123.241V69.3682H115.366C111.429 87.0181 103.948 96.0483 92.1353 96.4587L70.8733 96.8692C70.8733 59.9276 71.6608 33.6579 72.842 17.6499H103.948C125.997 17.6499 140.959 32.4266 149.621 61.9799L159.071 59.1066L157.496 4.10463ZM138.99 130.527C138.99 151.871 144.897 169.521 156.315 183.477C167.733 197.433 184.664 204 205.926 204C227.188 204 244.513 197.022 257.113 182.656C269.712 168.7 275.618 151.05 275.618 129.706C275.618 108.362 269.712 90.7123 258.294 76.7565C246.875 62.8008 229.944 56.2334 208.682 56.2334C187.421 56.2334 170.096 63.2113 157.496 77.5775C144.897 91.5332 138.99 109.183 138.99 130.527ZM226.795 83.7344C231.519 95.6378 233.488 111.235 233.488 130.117C233.488 173.626 224.826 194.97 207.895 194.97C199.233 194.97 192.539 188.813 187.814 176.499C183.089 164.185 181.121 148.588 181.121 130.117C181.121 87.0181 189.783 65.674 206.714 65.674C215.376 65.2636 222.07 71.4205 226.795 83.7344ZM559.505 183.477C572.499 197.022 589.036 204 608.723 204C620.929 204 631.56 201.537 641.01 196.201C650.459 191.276 657.94 185.119 663.059 177.73L659.122 172.805C650.459 179.783 640.616 183.066 629.197 183.066C613.448 183.066 601.242 177.73 592.973 166.648C584.311 155.565 580.374 141.61 581.161 123.549H665.422C665.422 103.847 660.697 87.839 650.853 75.1147C641.01 62.8008 627.229 56.6439 609.51 56.6439C587.461 56.6439 570.53 64.0322 558.324 78.3984C546.118 92.7646 540.212 110.414 540.212 131.348C540.212 152.692 546.512 169.932 559.505 183.477ZM588.642 80.4507C592.973 70.5996 598.486 65.674 605.967 65.674C617.779 65.674 623.685 81.2716 623.685 112.877L581.949 113.698C582.342 101.384 584.311 90.3018 588.642 80.4507ZM771.338 64.0322C760.707 59.1066 747.32 56.2334 731.176 56.2334C714.639 56.2334 701.646 60.7485 691.802 69.3682C681.959 77.9879 676.84 88.66 676.84 101.384C676.84 112.467 679.99 121.087 685.896 127.243C691.802 133.4 701.252 138.736 713.458 143.252C724.483 147.356 732.357 151.461 736.295 155.155C740.232 159.26 742.595 163.775 742.595 169.932C742.595 175.678 740.626 181.014 736.295 185.119C732.357 189.634 726.845 191.686 719.758 191.686C702.433 191.686 689.44 178.551 680.384 152.282L673.69 154.334L675.265 195.38C689.44 201.127 705.189 204 722.514 204C740.626 204 754.407 199.895 764.644 191.276C774.881 183.066 780 171.163 780 156.386C780 146.535 777.638 138.326 772.519 132.169C767.4 126.012 759.132 120.676 747.32 115.751C734.326 110.825 725.27 106.31 720.545 102.205C715.82 98.1006 713.458 93.175 713.458 87.0181C713.458 80.8612 715.033 75.9356 718.576 71.831C722.12 67.7264 726.451 66.0845 731.964 66.0845C747.713 66.0845 759.132 77.9879 766.219 101.384L772.913 99.332L771.338 64.0322ZM392.559 60.338C387.047 57.4648 381.141 56.2334 374.447 56.2334C367.754 56.2334 361.06 59.1066 353.579 64.8531C346.098 70.5996 340.586 78.3984 336.254 89.0704L336.648 56.2334L276.8 68.5473V74.2938L282.706 74.7042C290.187 75.5252 294.518 81.6821 295.305 92.7646C297.668 118.213 297.668 145.304 295.305 174.036C294.518 185.119 290.187 190.865 282.706 192.097L276.8 192.917V200.716H360.273V192.917L349.642 192.097C342.161 191.276 337.829 185.119 337.042 174.036C334.679 150.229 334.286 124.781 336.254 98.5111C338.617 94.4064 343.736 91.9437 351.61 91.1227C359.485 90.3018 368.541 92.7646 377.991 98.5111L392.559 60.338Z" fill="#808080"/>
</svg>
