<svg width="435" height="435" viewBox="0 0 435 435" fill="none" xmlns="http://www.w3.org/2000/svg">
<path d="M100.077 174.9C110.474 174.9 118.902 166.46 118.902 156.047C118.902 145.635 110.474 137.195 100.077 137.195C89.6803 137.195 81.252 145.635 81.252 156.047C81.252 166.46 89.6803 174.9 100.077 174.9Z" fill="#3C39C6"/>
<path d="M104.406 158.928L106.425 165.266L101.087 161.377C100.799 161.089 100.221 161.089 99.9329 161.377L94.4502 165.266L96.4702 158.928C96.6144 158.496 96.4702 158.064 96.0373 157.776L90.5547 153.887H97.1915C97.6244 153.887 98.0572 153.599 98.0572 153.167L100.077 146.829L102.097 153.167C102.241 153.599 102.674 153.887 102.963 153.887H109.6L104.117 157.776C104.406 158.064 104.261 158.496 104.406 158.928Z" fill="white"/>
<path d="M116.418 165.128L150.366 182.794" stroke="black" stroke-width="0.71"/>
<path d="M285.688 222.464L320.881 211.213" stroke="black" stroke-width="0.71"/>
<path d="M302.25 333.617C312.21 333.617 320.284 325.531 320.284 315.556C320.284 305.581 312.21 297.495 302.25 297.495C292.289 297.495 284.215 305.581 284.215 315.556C284.215 325.531 292.289 333.617 302.25 333.617Z" fill="#3C39C6"/>
<path d="M191.629 330.659H215.727" stroke="black" stroke-width="0.71" stroke-miterlimit="10"/>
<path d="M203.678 318.616V342.703" stroke="black" stroke-width="0.71" stroke-miterlimit="10"/>
<path d="M203.678 342.703C203.678 342.703 207.69 337.382 207.69 330.659C207.69 323.937 203.678 318.616 203.678 318.616" stroke="black" stroke-width="0.71" stroke-miterlimit="10"/>
<path d="M203.678 342.703C210.332 342.703 215.727 337.311 215.727 330.659C215.727 324.008 210.332 318.616 203.678 318.616C197.023 318.616 191.629 324.008 191.629 330.659C191.629 337.311 197.023 342.703 203.678 342.703Z" stroke="black" stroke-width="0.71" stroke-miterlimit="10"/>
<path d="M203.678 342.703C203.678 342.703 211.714 340.014 211.714 330.659C211.714 321.305 203.678 318.616 203.678 318.616" stroke="black" stroke-width="0.71" stroke-miterlimit="10"/>
<path d="M203.679 342.703C203.679 342.703 199.666 337.382 199.666 330.659C199.666 323.937 203.679 318.616 203.679 318.616" stroke="black" stroke-width="0.71" stroke-miterlimit="10"/>
<path d="M203.679 342.703C203.679 342.703 195.643 340.014 195.643 330.659C195.643 321.305 203.679 318.616 203.679 318.616" stroke="black" stroke-width="0.71" stroke-miterlimit="10"/>
<path d="M192.896 336.06C194.185 335.513 197.627 334.34 203.669 334.34C209.71 334.34 213.153 335.513 214.441 336.06" stroke="black" stroke-width="0.71" stroke-miterlimit="10"/>
<path d="M195.744 339.729C196.998 339.136 199.46 338.339 203.678 338.339C207.85 338.339 210.312 339.125 211.578 339.706" stroke="black" stroke-width="0.71" stroke-miterlimit="10"/>
<path d="M192.896 325.27C194.185 325.817 197.627 326.99 203.669 326.99C209.71 326.99 213.153 325.817 214.441 325.27" stroke="black" stroke-width="0.71" stroke-miterlimit="10"/>
<path d="M195.744 321.601C196.998 322.194 199.46 322.991 203.678 322.991C207.85 322.991 210.312 322.205 211.578 321.624" stroke="black" stroke-width="0.71" stroke-miterlimit="10"/>
<path d="M289.8 303.38L266.336 278.215" stroke="black" stroke-width="0.71"/>
<path d="M182.864 96.4036L187.706 106.804L193.964 97.1871L192.974 108.607L203.18 103.41L196.616 112.821L208.063 113.421L197.676 118.286L207.279 124.534L195.872 123.544L201.064 133.777L191.665 127.207L191.062 138.651L186.206 128.269L179.964 137.884L180.952 126.448L170.73 131.647L177.297 122.253L165.863 121.634L176.236 116.787L166.631 110.524L178.053 111.511L172.864 101.294L182.247 107.867L182.864 96.4036Z" fill="white" stroke="black" stroke-width="0.71" stroke-miterlimit="10"/>
<path d="M336.238 221.464C345.909 221.464 353.748 213.592 353.748 203.881C353.748 194.17 345.909 186.298 336.238 186.298C326.568 186.298 318.729 194.17 318.729 203.881C318.729 213.592 326.568 221.464 336.238 221.464Z" stroke="black" stroke-width="0.71" stroke-miterlimit="10"/>
<path d="M347.937 207.963C346.249 212.82 341.645 216.312 336.241 216.312C330.837 216.312 326.232 212.82 324.545 207.963" stroke="black" stroke-width="0.71" stroke-miterlimit="10"/>
<path d="M346.785 207.75C346.785 207.75 347.762 208.272 348.896 208.182" stroke="black" stroke-width="0.71" stroke-miterlimit="10"/>
<path d="M325.595 207.75C325.595 207.75 324.618 208.272 323.484 208.182" stroke="black" stroke-width="0.71" stroke-miterlimit="10"/>
<path d="M340.609 204.896C342.159 204.896 343.416 202.237 343.416 198.955C343.416 195.674 342.159 193.014 340.609 193.014C339.058 193.014 337.801 195.674 337.801 198.955C337.801 202.237 339.058 204.896 340.609 204.896Z" fill="#3C39C6"/>
<path d="M331.864 204.896C333.415 204.896 334.672 202.237 334.672 198.955C334.672 195.674 333.415 193.014 331.864 193.014C330.314 193.014 329.057 195.674 329.057 198.955C329.057 202.237 330.314 204.896 331.864 204.896Z" fill="#3C39C6"/>
<path d="M93.8803 199.744L97.0854 208.069L97.1419 208.215L97.2885 208.272L105.583 211.485L97.2905 214.64L97.1424 214.697L97.0854 214.845L93.8803 223.169L90.6751 214.845L90.6183 214.697L90.4708 214.641L82.2345 211.485L90.4728 208.272L90.6188 208.215L90.6751 208.069L93.8803 199.744Z" stroke="black" stroke-width="0.71"/>
<path d="M110.28 224.46L111.717 228.192L111.773 228.339L111.92 228.396L115.636 229.835L111.922 231.248L111.774 231.305L111.717 231.453L110.28 235.185L108.843 231.453L108.786 231.305L108.639 231.249L104.949 229.835L108.641 228.395L108.787 228.338L108.843 228.192L110.28 224.46Z" stroke="black" stroke-width="0.71"/>
<path d="M87.5671 274.844L89.004 278.576L89.0605 278.722L89.2071 278.779L92.9233 280.219L89.2091 281.632L89.061 281.688L89.004 281.836L87.5671 285.568L86.1301 281.836L86.0734 281.689L85.9258 281.632L82.2365 280.219L85.9278 278.779L86.0738 278.722L86.1301 278.576L87.5671 274.844Z" stroke="black" stroke-width="0.71"/>
<path d="M243.232 123.848L246.22 131.61L253.959 134.608L246.22 137.552L243.232 145.314L240.243 137.552L232.559 134.608L240.243 131.61L243.232 123.848Z" fill="#3C39C6"/>
<path d="M315.844 247.879L318.726 255.363L326.187 258.254L318.726 261.093L315.844 268.577L312.963 261.093L305.553 258.254L312.963 255.363L315.844 247.879Z" stroke="black" stroke-width="0.71"/>
<path fill-rule="evenodd" clip-rule="evenodd" d="M198.607 216.127C203.953 210.774 212.116 209.761 218.473 213.161L223.53 208.097V169.985C219.366 169.056 215.036 168.565 210.592 168.565C177.9 168.565 151.397 195.106 151.397 227.848C151.397 237.02 153.477 245.707 157.191 253.459H176.645L178.018 252.084L186.831 243.258L188.782 241.304L195.211 234.865C192.394 228.716 193.55 221.192 198.607 216.127ZM156.143 253.459C152.492 245.687 150.451 237.006 150.451 227.848C150.451 194.585 177.376 167.619 210.592 167.619C215.034 167.619 219.363 168.101 223.53 169.016V162.156L225.625 160.058C203.158 155.066 178.74 161.288 161.33 178.796C141.175 198.981 136.046 228.499 145.798 253.459H156.143Z" fill="#3C39C6"/>
<path fill-rule="evenodd" clip-rule="evenodd" d="M264.064 202.381H244.558L234.372 212.582L225.847 221.119C228.665 227.341 227.509 234.865 222.38 240.002C217.034 245.356 208.87 246.368 202.513 242.968L197.601 247.888V285.698C201.782 286.635 206.13 287.13 210.594 287.13C243.285 287.13 269.789 260.589 269.789 227.848C269.789 218.732 267.734 210.097 264.064 202.381ZM265.11 202.381C268.719 210.116 270.735 218.746 270.735 227.848C270.735 261.111 243.81 288.077 210.594 288.077C206.133 288.077 201.785 287.59 197.601 286.667V293.756L195.289 296.071C217.756 301.063 242.174 294.841 259.584 277.333C279.884 257.076 285.013 227.413 275.188 202.381H265.11Z" fill="#3C39C6"/>
<ellipse cx="210.593" cy="227.848" rx="74.978" ry="75.0881" stroke="black" stroke-width="0.71"/>
<path d="M282.152 157.119L241.329 197.233L228.897 209.448L211.428 226.614L192.009 245.662L178.978 258.445L140.703 296.109" stroke="black" stroke-width="0.71"/>
<ellipse cx="298.451" cy="140.05" rx="23.5157" ry="23.5502" stroke="black" stroke-width="0.71"/>
<path d="M127.27 325.583C137.029 325.583 144.939 317.661 144.938 307.888C144.938 298.115 137.026 290.192 127.267 290.192C117.509 290.192 109.598 298.115 109.599 307.888C109.6 317.661 117.512 325.583 127.27 325.583Z" stroke="black" stroke-width="0.71" stroke-miterlimit="2.6131" stroke-linecap="round" stroke-linejoin="round"/>
<path d="M300.299 311.537V318.659L309.156 323.92C309.886 324.356 310.813 323.828 310.813 322.974V307.218C310.813 306.369 309.89 305.84 309.156 306.272L300.299 311.537Z" stroke="white" stroke-width="0.71"/>
<path d="M293.4 311.576C292.385 311.576 291.559 312.404 291.559 313.421V316.771C291.559 317.788 292.385 318.615 293.4 318.615H299.651V311.572H293.4V311.576Z" stroke="white" stroke-width="0.71"/>
<path d="M311.273 312.052V318.148C312.28 317.506 312.948 316.383 312.948 315.102C312.948 313.821 312.28 312.69 311.273 312.052Z" fill="white" stroke="white" stroke-width="0.71"/>
<path d="M297.602 318.629C297.602 318.629 296.446 321.217 298.995 324.281C299.232 324.563 299.026 324.994 298.657 324.994H295.927C295.72 324.994 295.536 324.884 295.435 324.704C294.934 323.788 293.562 320.865 294.841 318.211" fill="white"/>
<path d="M297.602 318.629C297.602 318.629 296.446 321.217 298.995 324.281C299.232 324.563 299.026 324.994 298.657 324.994H295.927C295.72 324.994 295.536 324.884 295.435 324.704C294.934 323.788 293.562 320.865 294.841 318.211" stroke="white" stroke-width="0.71"/>
<path d="M242.596 319.571L243.917 323.752L240.52 321.091C240.331 320.901 239.953 320.901 239.765 321.091L236.178 323.752L237.5 319.571C237.5 319.381 237.5 319.001 237.311 318.811L233.725 316.34H238.066C238.255 316.34 238.632 316.15 238.632 315.96L239.953 311.779L241.275 315.96C241.275 316.15 241.652 316.34 241.841 316.34H246.182L242.785 318.811C242.596 319.001 242.596 319.191 242.596 319.571Z" stroke="black" stroke-width="0.71"/>
<path d="M296.065 188.104L297.386 192.285L293.988 189.624C293.8 189.434 293.422 189.434 293.233 189.624L289.647 192.285L290.968 188.104C290.968 187.914 290.968 187.533 290.78 187.343L287.193 184.873H291.535C291.723 184.873 292.101 184.683 292.101 184.493L293.422 180.311L294.743 184.493C294.743 184.683 295.121 184.873 295.31 184.873H299.651L296.253 187.343C296.065 187.533 296.065 187.724 296.065 188.104Z" stroke="black" stroke-width="0.71"/>
<path d="M293.715 127.183C292.26 127.183 290.799 127.703 289.689 128.952C287.469 131.45 287.53 135.3 289.689 137.798L298.451 147.997L307.214 137.798C309.373 135.3 309.434 131.45 307.214 128.952C304.994 126.559 301.381 126.559 299.162 128.952L298.451 129.785L297.741 128.952C296.631 127.703 295.169 127.183 293.715 127.183Z" stroke="black" stroke-width="0.71"/>
<path d="M293.715 135.864C292.26 135.864 290.799 136.341 289.689 137.486C287.469 139.775 287.53 143.305 289.689 145.594L298.451 154.943L307.214 145.594C309.373 143.305 309.434 139.775 307.214 137.486C304.994 135.292 301.381 135.292 299.162 137.486L298.451 138.249L297.741 137.486C296.631 136.341 295.169 135.864 293.715 135.864Z" fill="#3C39C6"/>
<path d="M137.304 300.775L132.265 303.865L127.433 297.45C127.413 297.424 127.388 297.403 127.359 297.389C127.33 297.374 127.298 297.367 127.266 297.367C127.233 297.367 127.201 297.374 127.172 297.389C127.143 297.403 127.118 297.424 127.099 297.45L122.27 303.865L117.228 300.775C117.08 300.685 116.889 300.806 116.912 300.979L118.89 315.944C118.919 316.148 119.095 316.305 119.305 316.305H135.232C135.439 316.305 135.618 316.15 135.644 315.944L137.622 300.979C137.643 300.806 137.454 300.685 137.304 300.775ZM127.267 312.573C125.659 312.573 124.351 311.271 124.351 309.67C124.351 308.07 125.659 306.768 127.267 306.768C128.875 306.768 130.183 308.07 130.183 309.67C130.183 311.271 128.875 312.573 127.267 312.573ZM127.267 308.425C126.578 308.425 126.019 308.982 126.019 309.67C126.019 310.356 126.578 310.915 127.267 310.915C127.956 310.915 128.515 310.358 128.515 309.67C128.515 308.985 127.956 308.425 127.267 308.425Z" fill="#3C39C6"/>
<ellipse cx="210.592" cy="227.848" rx="21.9654" ry="21.9977" fill="white"/>
<path d="M192.499 228.462C195.681 226.723 199.234 225.271 202.553 223.812C208.263 221.423 213.996 219.075 219.787 216.888C220.913 216.516 222.938 216.152 223.136 217.808C223.027 220.153 222.58 222.484 222.274 224.815C221.495 229.941 220.595 235.05 219.718 240.159C219.416 241.861 217.267 242.742 215.892 241.653C212.588 239.438 209.258 237.245 205.996 234.98C204.927 233.902 205.918 232.355 206.872 231.586C209.594 228.925 212.48 226.664 215.059 223.866C215.755 222.199 213.699 223.604 213.021 224.034C209.295 226.582 205.661 229.284 201.733 231.523C199.726 232.619 197.387 231.682 195.382 231.071C193.584 230.332 190.948 229.588 192.499 228.462L192.499 228.462Z" fill="#3C39C6"/>
</svg>
