<?xml version="1.0" encoding="UTF-8"?>
<svg xmlns="http://www.w3.org/2000/svg" width="60" height="60" viewBox="0 0 60 60" fill="none">
  <g clip-path="url(#clip0_6_73)">
    <mask id="mask0_6_73" style="mask-type:luminance" maskUnits="userSpaceOnUse" x="0" y="0" width="60" height="60">
      <path d="M60 0H0V60H60V0Z" fill="white"></path>
    </mask>
    <g mask="url(#mask0_6_73)">
      <path d="M53.3545 56.7018C48.8105 59.2668 41.0149 60 30.2312 60C19.4475 60 11.6519 59.2668 7.10792 56.7018C4.38059 55.1659 3.00003 53.0719 3.00003 51.5708C3.00003 50.7158 3.4549 50.227 4.46781 50.227H55.9936C57.0075 50.227 57.4614 50.7158 57.4614 51.5708C57.4624 53.0719 56.0818 55.1659 53.3545 56.7018ZM55.9936 16.9109H4.46781C3.4549 16.9109 3.00003 16.3874 3.00003 15.4453C3.00003 9.86012 11.4072 0 30.2312 0C48.8808 0 57.4624 9.86012 57.4624 15.4453C57.4624 16.3874 57.0075 16.9109 55.9936 16.9109Z" fill="white"></path>
      <path d="M13.9757 39.9482C13.8182 39.7038 13.8013 39.5465 13.8013 39.4772C13.8013 39.2852 13.9063 39.1457 14.1155 38.9537C14.6051 38.4995 15.8112 37.3655 16.4751 36.3363C16.9816 35.5505 17.1917 34.835 17.1917 34.2423C17.1917 32.7243 15.8112 31.5368 14.3077 31.5368C13.3464 31.5368 12.4377 32.0781 11.8261 33.0726C11.0046 34.3987 10.0254 35.9345 9.39708 36.546C9.23949 36.7033 9.15223 36.738 9.03038 36.738C8.82025 36.738 8.73303 36.5984 8.73303 36.3718V34.6263C8.73303 32.9163 7.71919 31.5368 5.88377 31.5368C4.03147 31.5368 3.03452 32.9153 3.03452 34.6263V45.377C3.03452 47.087 4.03053 48.4664 5.88377 48.4664C7.71919 48.4664 8.73303 47.0879 8.73303 45.377V42.899C8.73303 42.6893 8.82025 42.5329 9.03038 42.5329C9.30982 42.5329 9.38014 42.812 9.44958 42.9515C9.85194 43.9114 11.0224 45.953 12.1065 47.1572C12.8409 47.9598 13.7497 48.4664 14.7111 48.4664C16.3363 48.4664 17.7 47.0524 17.7 45.5343C17.7 44.5922 17.2977 43.8936 16.5286 43.0564C15.5495 41.9898 14.3959 40.5935 13.9757 39.9482Z" fill="white"></path>
      <path d="M35.7721 30.5413C38.5163 30.5413 40.2467 28.7957 40.2467 26.2485C40.2467 24.6256 39.2675 23.5084 37.3102 23.5084H36.7512C35.7196 23.5084 34.9159 23.9972 34.9159 25.0966C34.9159 26.0743 35.7721 26.5453 36.4192 26.5453C36.7512 26.5453 36.9613 26.6502 36.9613 26.8947C36.9613 27.2084 36.5946 27.4182 36.1744 27.4182C34.8633 27.4182 33.9724 26.4929 33.9724 24.7651C33.9724 22.8454 35.1963 22.1477 36.1398 22.1477C37.2934 22.1477 37.4856 22.7414 38.2894 22.7414C39.216 22.7414 39.8453 21.9735 39.8453 21.1709C39.8453 20.5772 39.5827 20.1239 39.1812 19.8093C38.4469 19.268 37.4162 18.8672 35.8781 18.8672C33.1685 18.8672 30.5294 20.6474 30.5294 24.7661C30.5284 28.7086 33.1677 30.5413 35.7721 30.5413Z" fill="white"></path>
      <path d="M5.0446 30.4364H7.50933C9.83428 30.4364 11.2496 28.8827 11.2496 26.9462C11.2496 25.3925 10.3229 24.6771 10.1138 24.5029C10.0265 24.4327 9.93937 24.3633 9.93937 24.2931C9.93937 24.206 9.99187 24.1714 10.0791 24.0665C10.4111 23.6825 10.7431 23.0719 10.7431 22.1814C10.7431 20.0874 9.32692 18.9702 7.1248 18.9702H5.0446C3.66405 18.9702 3.00003 19.7737 3.00003 20.8553V28.5512C3.00003 29.6338 3.66405 30.4364 5.0446 30.4364ZM6.07626 21.9725C6.07626 21.7459 6.216 21.5708 6.5133 21.5708H6.74027C7.49151 21.5708 7.71941 22.0943 7.71941 22.5484C7.71941 22.9671 7.49244 23.5608 6.74027 23.5608H6.5133C6.216 23.5608 6.07626 23.3866 6.07626 23.159V21.9725ZM6.07626 26.0565C6.07626 25.8299 6.216 25.6547 6.5133 25.6547H6.82749C7.66689 25.6547 7.91074 26.2129 7.91074 26.7196C7.91074 27.1737 7.66596 27.819 6.82749 27.819H6.5133C6.216 27.819 6.07626 27.6448 6.07626 27.4172V26.0565Z" fill="white"></path>
      <path d="M50.6809 30.5235C51.7999 30.5235 52.4113 29.6854 52.4113 28.6384V26.7888C52.4113 26.5623 52.5163 26.4573 52.6908 26.4573C52.9009 26.4573 52.9703 26.5791 53.005 26.7888C53.1626 27.6785 53.5818 28.8828 54.0536 29.4943C54.6481 30.28 55.2071 30.5245 55.7661 30.5245C56.6749 30.5245 57.4617 29.809 57.4617 28.9184C57.4617 28.3247 57.217 27.8883 56.9028 27.4875C56.3081 26.7374 55.9414 26.2485 55.7145 25.6379C55.662 25.4984 55.6967 25.3758 55.8543 25.254C56.3963 24.8354 57.0257 23.9102 57.0257 22.4446C57.0257 20.2279 55.1902 18.9712 52.9703 18.9712H50.9951C49.6145 18.9712 48.9506 19.7737 48.9506 20.8563V28.6403C48.9506 29.6863 49.562 30.5235 50.6809 30.5235ZM52.2191 22.2694C52.2191 22.0428 52.3588 21.8677 52.6561 21.8677H52.9009C53.6352 21.8677 53.8622 22.3912 53.8622 22.8453C53.8622 23.2817 53.6352 23.8577 52.9009 23.8577H52.6561C52.3588 23.8577 52.2191 23.6835 52.2191 23.4559V22.2694Z" fill="white"></path>
      <path d="M21.9458 31.5357C19.9885 31.5357 18.9221 33.0013 18.9221 34.834V45.1661C18.9221 46.9988 19.9885 48.4644 21.9458 48.4644C23.9032 48.4644 24.9695 46.9988 24.9695 45.1661V34.834C24.9695 33.0022 23.9041 31.5357 21.9458 31.5357Z" fill="white"></path>
      <path d="M53.0226 38.255H52.1663C50.6282 38.255 49.4399 38.9705 49.4399 40.541C49.4399 41.9719 50.7333 42.6528 51.6946 42.6528C52.1663 42.6528 52.4983 42.7923 52.4983 43.1584C52.4983 43.6126 51.9394 43.9085 51.3448 43.9085C49.3696 43.9085 48.0238 42.5647 48.0238 40.069C48.0238 37.2942 49.8591 36.2819 51.2744 36.2819C53.0048 36.2819 53.2843 37.1547 54.4903 37.1547C55.8888 37.1547 56.8322 36.0206 56.8322 34.8687C56.8322 34.0137 56.4477 33.3507 55.8362 32.8965C54.7699 32.1109 53.1623 31.5349 50.8899 31.5349C46.8177 31.5349 42.8495 34.0999 42.8495 40.069C42.8495 45.7759 46.8167 48.4458 50.7323 48.4458C54.8392 48.4458 57.4438 45.9154 57.4438 42.2154C57.4446 39.8779 55.9769 38.255 53.0226 38.255Z" fill="white"></path>
      <path d="M46.4161 30.4364C47.3952 30.4364 48.1642 29.8604 48.1642 28.8134C48.1642 27.7834 47.3952 27.2074 46.4161 27.2074H44.8432C44.5459 27.2074 44.4062 27.0332 44.4062 26.8056V26.4741C44.4062 26.2476 44.5459 26.0724 44.8432 26.0724H46.0494C46.8888 26.0724 47.5527 25.5667 47.5527 24.6761C47.5527 23.7865 46.8888 23.2799 46.0494 23.2799H44.8432C44.5459 23.2799 44.4062 23.1057 44.4062 22.8781V22.599C44.4062 22.3724 44.5459 22.1973 44.8432 22.1973H46.4161C47.3952 22.1973 48.1642 21.6213 48.1642 20.5744C48.1642 19.5442 47.3952 18.9683 46.4161 18.9683H43.1128C41.7323 18.9683 41.0683 19.7708 41.0683 20.8534V28.5494C41.0683 29.631 41.7323 30.4345 43.1128 30.4345H46.4161V30.4364Z" fill="white"></path>
      <path d="M16.3878 30.5234C19.2191 30.5234 20.7226 28.8303 20.7226 26.7017V20.8206C20.7226 19.7736 20.1111 18.9355 18.9922 18.9355C17.8734 18.9355 17.2618 19.7736 17.2618 20.8206V26.5097C17.2618 26.9283 17.0171 27.4172 16.3878 27.4172C15.7585 27.4172 15.5484 26.9283 15.5484 26.5097V20.8206C15.5484 19.7736 14.919 18.9355 13.8002 18.9355C12.6813 18.9355 12.0698 19.7736 12.0698 20.8206V26.7017C12.0707 28.8313 13.5563 30.5234 16.3878 30.5234Z" fill="white"></path>
      <path d="M28.6587 30.5235C29.5675 30.5235 30.3544 29.808 30.3544 28.9174C30.3544 28.3237 30.1096 27.8873 29.7954 27.4865C29.2889 26.8235 28.8341 26.2475 28.6071 25.6369C28.5546 25.4974 28.5893 25.3748 28.7469 25.253C29.2889 24.8344 29.9183 23.9092 29.9183 22.4436C29.9183 20.227 28.0828 18.9702 25.8629 18.9702H23.8868C22.5063 18.9702 21.8422 19.7727 21.8422 20.8553V28.6393C21.8422 29.6863 22.4537 30.5244 23.5726 30.5244C24.6915 30.5244 25.303 29.6863 25.303 28.6393V26.7898C25.303 26.5631 25.4081 26.4582 25.5825 26.4582C25.7926 26.4582 25.862 26.58 25.8966 26.7898C26.0542 27.6794 26.4734 28.8837 26.9452 29.4953C27.5398 30.2791 28.0988 30.5235 28.6587 30.5235ZM25.7916 23.8567H25.5469C25.2495 23.8567 25.1098 23.6825 25.1098 23.455V22.2694C25.1098 22.0427 25.2495 21.8677 25.5469 21.8677H25.7916C26.526 21.8677 26.753 22.3911 26.753 22.8453C26.753 23.2808 26.526 23.8567 25.7916 23.8567Z" fill="white"></path>
      <path d="M38.7075 31.5357C36.9067 31.5357 35.9285 32.8796 35.9285 34.5727V38.342C35.9285 38.6557 35.8235 38.7962 35.6313 38.7962C35.4915 38.7962 35.3864 38.7091 35.2646 38.4647L32.8355 33.7524C31.9088 31.9543 30.9475 31.5357 29.8465 31.5357C28.011 31.5357 26.9972 32.9142 26.9972 34.642V45.4283C26.9972 47.1214 27.9763 48.4654 29.7761 48.4654C31.5769 48.4654 32.555 47.1214 32.555 45.4283V41.6591C32.555 41.3453 32.66 41.2048 32.8523 41.2048C32.9921 41.2048 33.0971 41.2919 33.219 41.5363L35.6481 46.2487C36.5748 48.0467 37.5708 48.4654 38.6371 48.4654C40.4726 48.4654 41.4864 47.0869 41.4864 45.359V34.5727C41.4864 32.8796 40.5082 31.5357 38.7075 31.5357Z" fill="white"></path>
      <path d="M55.5 48.8615C55.5 48.3924 55.8639 48 56.3629 48C56.8618 48 57.2257 48.3924 57.2257 48.8615C57.2257 49.3654 56.8618 49.7287 56.3629 49.7287C55.8639 49.7297 55.5 49.3598 55.5 48.8615ZM57.0381 48.8615C57.0381 48.428 56.6977 48.1761 56.3629 48.1761C56.028 48.1761 55.6876 48.428 55.6876 48.8615C55.6876 49.3129 56.028 49.5527 56.3629 49.5527C56.6977 49.5527 57.0381 49.3129 57.0381 48.8615ZM56.0636 49.2315V48.4991C56.0636 48.4523 56.1049 48.4055 56.1519 48.4055H56.3985C56.5917 48.4055 56.7267 48.5225 56.7267 48.6808C56.7267 48.8156 56.6508 48.9327 56.4745 48.9618L56.6677 49.179C56.6855 49.1968 56.6967 49.2202 56.6967 49.2371C56.6967 49.2896 56.6611 49.3251 56.6086 49.3251C56.5729 49.3251 56.5495 49.3073 56.5326 49.2839L56.2747 48.9796H56.2456V49.2315C56.2456 49.2783 56.2044 49.3195 56.1519 49.3195C56.1049 49.3186 56.0636 49.2783 56.0636 49.2315ZM56.375 48.8148C56.481 48.8148 56.5391 48.7623 56.5391 48.692C56.5391 48.6162 56.4866 48.575 56.3929 48.575H56.2466V48.8156H56.375V48.8148Z" fill="white"></path>
    </g>
  </g>
  <defs>
    <clipPath id="clip0_6_73">
      <rect width="60" height="60" fill="white"></rect>
    </clipPath>
  </defs>
</svg>
