<?xml version="1.0" encoding="UTF-8"?>
<svg xmlns="http://www.w3.org/2000/svg" width="138" height="40" viewBox="0 0 138 40" fill="none">
  <g clip-path="url(#clip0_6_90)">
    <path d="M14.9457 6.41806V17.3535H4.80917V6.41806H0V32.5226H4.81047V21.9419H14.9444V32.5226H19.7561V6.41806H14.9457ZM35.1535 24.0852C35.1535 25.1315 34.7342 26.1349 33.9877 26.8748C33.2412 27.6147 32.2287 28.0303 31.173 28.0303C30.1173 28.0303 29.1049 27.6147 28.3584 26.8748C27.6119 26.1349 27.1925 25.1315 27.1925 24.0852V12.9032H22.6294V24.0852C22.6294 26.3287 23.5286 28.4804 25.1293 30.0668C26.7299 31.6533 28.9009 32.5445 31.1646 32.5445C33.4282 32.5445 35.5992 31.6533 37.1998 30.0668C38.8005 28.4804 39.6997 26.3287 39.6997 24.0852V12.9032H35.1535V24.0852ZM68.9649 14.0555C68.9649 11.7626 70.4946 11.0361 72.1701 11.0361C73.5215 11.0361 75.305 12.0555 76.4728 13.2916L79.4607 9.8C77.9687 7.8 74.9431 6.41806 72.4656 6.41806C67.5145 6.41806 63.9344 9.29161 63.9344 14.0555C63.9344 22.8942 74.8338 20.089 74.8338 25.0361C74.8338 26.5613 73.3392 27.9084 71.6285 27.9084C68.9297 27.9084 68.0548 26.6013 66.8154 25.2181L63.4982 28.6361C65.6203 31.2168 68.2371 32.5277 71.3707 32.5277C76.0745 32.5277 79.8577 29.6194 79.8577 25.0723C79.8577 15.2606 68.957 18.3097 68.957 14.0555M136.395 28.3523C133.699 28.3523 132.932 27.1961 132.932 25.4258V17.5871H137.124V13.6155H132.932V8.37548L128.305 10.4335V26.4C128.305 30.4839 131.148 32.5419 135.046 32.5419C135.658 32.5523 136.27 32.5032 136.871 32.3974L138 28.2787C137.491 28.3135 136.906 28.3484 136.395 28.3484M52.5233 13.0335C50.2632 13.0335 48.6854 13.6839 47.1595 15.1664V6.57419H42.5899V22.5006C42.5899 28.4619 46.9382 32.5471 51.8255 32.5471C57.2466 32.5471 62.0154 28.3897 62.0154 22.7923C62.0154 17.2645 57.6267 13.0374 52.5233 13.0374M52.4947 27.9884C51.8136 27.9884 51.1393 27.8554 50.5101 27.5971C49.8809 27.3388 49.3092 26.9602 48.8276 26.4829C48.346 26.0056 47.964 25.439 47.7034 24.8154C47.4428 24.1918 47.3086 23.5234 47.3086 22.8484C47.3086 22.1734 47.4428 21.505 47.7034 20.8814C47.964 20.2578 48.346 19.6911 48.8276 19.2139C49.3092 18.7366 49.8809 18.358 50.5101 18.0996C51.1393 17.8413 51.8136 17.7084 52.4947 17.7084C53.8701 17.7084 55.1892 18.2499 56.1618 19.2139C57.1344 20.1778 57.6807 21.4852 57.6807 22.8484C57.6807 24.2116 57.1344 25.519 56.1618 26.4829C55.1892 27.4468 53.8701 27.9884 52.4947 27.9884ZM102.151 22.5548C102.151 16.9471 97.3929 12.8 91.9614 12.8C87.0754 12.8 82.7258 16.8839 82.7258 22.8464V38.7819H87.2954V30.1781C88.8186 31.6581 90.3991 32.311 92.6566 32.311C97.76 32.311 102.151 28.0839 102.151 22.5548ZM97.8238 22.4981C97.8238 23.8613 97.2774 25.1687 96.3048 26.1326C95.3322 27.0965 94.0131 27.6381 92.6377 27.6381C91.2623 27.6381 89.9432 27.0965 88.9706 26.1326C87.998 25.1687 87.4516 23.8613 87.4516 22.4981C87.4516 21.1348 87.998 19.8275 88.9706 18.8635C89.9432 17.8996 91.2623 17.3581 92.6377 17.3581C94.0131 17.3581 95.3322 17.8996 96.3048 18.8635C97.2774 19.8275 97.8238 21.1348 97.8238 22.4981Z" fill="white"></path>
    <path d="M116.917 12.5806V8.02966C117.524 7.74859 118.038 7.30249 118.399 6.74329C118.76 6.18408 118.953 5.53478 118.956 4.87095V4.76644C118.956 2.83095 117.373 1.26192 115.42 1.26192H115.315C114.377 1.26192 113.477 1.63115 112.814 2.28837C112.151 2.94559 111.779 3.83698 111.779 4.76644V4.87095C111.782 5.53478 111.975 6.18408 112.336 6.74329C112.697 7.30249 113.211 7.74859 113.817 8.02966V12.5806C112.074 12.8453 110.431 13.5619 109.056 14.658L96.4633 4.93676C96.5531 4.61547 96.6 4.28515 96.6052 3.95353C96.6068 3.17251 96.3746 2.40857 95.938 1.75836C95.5014 1.10815 94.8801 0.600865 94.1526 0.300682C93.4251 0.000500083 92.6241 -0.0790972 91.8509 0.071959C91.0778 0.223015 90.3672 0.597938 89.8091 1.1493C89.251 1.70067 88.8704 2.40371 88.7154 3.16949C88.5605 3.93527 88.6382 4.72939 88.9387 5.45141C89.2392 6.17342 89.749 6.79089 90.4036 7.22571C91.0582 7.66052 91.8282 7.89316 92.6162 7.89418C93.3056 7.89096 93.9821 7.70855 94.5782 7.36515L106.979 16.929C105.865 18.597 105.283 20.5589 105.311 22.5589C105.338 24.559 105.973 26.5046 107.132 28.1419L103.361 31.8813C103.056 31.7846 102.738 31.7333 102.418 31.729C101.771 31.7295 101.139 31.9201 100.601 32.2766C100.064 32.6331 99.6449 33.1395 99.3976 33.7319C99.1503 34.3243 99.0858 34.9761 99.2121 35.6048C99.3384 36.2336 99.65 36.8111 100.107 37.2644C100.565 37.7178 101.147 38.0265 101.782 38.1517C102.416 38.2769 103.074 38.2129 103.672 37.9678C104.269 37.7227 104.78 37.3075 105.14 36.7747C105.5 36.2418 105.692 35.6153 105.692 34.9742C105.688 34.657 105.636 34.3421 105.539 34.04L109.27 30.3406C110.487 31.269 111.902 31.9091 113.407 32.2117C114.911 32.5144 116.466 32.4717 117.952 32.0868C119.437 31.7019 120.814 30.9851 121.977 29.9913C123.14 28.9975 124.058 27.7531 124.661 26.3533C125.264 24.9536 125.535 23.4357 125.455 21.9159C125.374 20.3961 124.943 18.9148 124.196 17.5854C123.448 16.2559 122.404 15.1137 121.142 14.2463C119.881 13.3788 118.435 12.809 116.917 12.5806ZM115.371 27.5484C114.681 27.5672 113.995 27.4488 113.352 27.2002C112.709 26.9517 112.124 26.578 111.629 26.1012C111.135 25.6245 110.742 25.0543 110.473 24.4245C110.205 23.7946 110.067 23.1179 110.067 22.4342C110.067 21.7505 110.205 21.0737 110.473 20.4439C110.742 19.814 111.135 19.2439 111.629 18.7671C112.124 18.2904 112.709 17.9167 113.352 17.6681C113.995 17.4196 114.681 17.3012 115.371 17.32C116.707 17.3664 117.973 17.925 118.902 18.8783C119.832 19.8315 120.351 21.105 120.352 22.4304C120.353 23.7558 119.834 25.0298 118.906 25.984C117.978 26.9382 116.712 27.4981 115.376 27.5458" fill="white"></path>
  </g>
  <defs>
    <clipPath id="clip0_6_90">
      <rect width="138" height="40" fill="white"></rect>
    </clipPath>
  </defs>
</svg>
