<?xml version="1.0" encoding="UTF-8"?>
<svg xmlns="http://www.w3.org/2000/svg" width="120" height="30" viewBox="0 0 120 30" fill="none">
  <g id="logitechg 1">
    <path id="Vector" d="M23.7338 19.6791C21.8624 19.6791 20.4162 18.2246 20.4162 16.2567C20.4162 14.3743 21.8624 12.9198 23.7338 12.9198C25.6053 12.9198 27.0515 14.3743 27.0515 16.2567C27.1365 18.2246 25.6053 19.6791 23.7338 19.6791ZM29.8587 12.8342V10.5241H25.7755C25.0949 10.2674 24.4144 10.1818 23.7338 10.1818C20.246 10.1818 17.5239 12.8342 17.5239 16.3423C17.5239 19.8503 20.246 22.5026 23.7338 22.5026C27.2216 22.5026 29.9438 19.8503 29.9438 16.3423C29.9438 15.1444 29.6035 14.0321 29.008 13.1765L29.8587 12.8342ZM10.2932 19.6791C8.42169 19.6791 6.97553 18.2246 6.97553 16.2567C6.97553 14.3743 8.42169 12.9198 10.2932 12.9198C12.1647 12.9198 13.6108 14.3743 13.6108 16.2567C13.6108 18.2246 12.1647 19.6791 10.2932 19.6791ZM10.2932 10.1818C6.8054 10.1818 4.08324 12.8342 4.08324 16.3423C4.08324 19.8503 6.8054 22.5026 10.2932 22.5026C13.7809 22.5026 16.5031 19.8503 16.5031 16.3423C16.5031 12.8342 13.7809 10.1818 10.2932 10.1818ZM0 22.1604H2.89229V5.64707H0V22.1604ZM31.1347 22.1604H34.0269V10.5241H31.1347V22.1604ZM23.7338 26.2674C21.8624 26.2674 20.4162 24.8128 20.4162 22.9305H17.5239C17.5239 26.4384 20.246 29.091 23.7338 29.091C27.2216 29.091 29.9438 26.4384 29.9438 22.9305H27.0515C27.0515 24.8983 25.6053 26.2674 23.7338 26.2674ZM44.6604 15.1444C45.0858 13.6043 46.1916 12.7487 47.7229 12.7487C49.254 12.7487 50.36 13.6043 50.7002 15.1444H44.6604ZM47.808 10.1818C44.3202 10.1818 41.6831 12.8342 41.6831 16.4278C41.6831 19.9358 44.0649 22.5026 47.808 22.5026C49.8496 22.5026 51.7211 21.7326 53.0822 20.2781L51.1256 18.3102C50.1898 19.2514 49.1691 19.8503 47.8931 19.8503C46.2767 19.8503 45.0858 18.909 44.7455 17.4545H53.7627V16.7701C53.7627 12.8342 51.2956 10.1818 47.808 10.1818ZM73.4133 10.1818C71.9671 10.1818 70.7762 10.6952 69.9255 11.6364V5.56149H67.0333V22.1604H69.9255V15.8289C69.9255 14.1176 70.9464 13.0054 72.7327 13.0054C74.3489 13.0054 75.2847 14.0321 75.2847 15.8289V22.1604H78.1771V15.3155C78.1771 12.0642 76.1355 10.1818 73.4133 10.1818ZM60.9084 13.0054C62.0993 13.0054 63.12 13.6043 63.8856 14.5455L65.9273 12.5775C64.8215 11.123 63.0351 10.2674 60.9935 10.2674C57.5056 10.2674 54.7835 12.9198 54.7835 16.4278C54.7835 19.9358 57.5056 22.5883 60.9935 22.5883C63.0351 22.5883 64.8215 21.6471 65.9273 20.2781L63.8856 18.2246C63.12 19.0802 62.0993 19.7647 60.9084 19.7647C59.0369 19.7647 57.6758 18.3102 57.6758 16.4278C57.5907 14.4599 59.0369 13.0054 60.9084 13.0054ZM39.7265 6.93049H36.8342V10.5241H35.3031V13.0909H36.8342V22.1604H39.7265V13.0909H41.3427V10.5241H39.7265V6.93049ZM32.5809 5.30481C31.56 5.30481 30.7095 6.16042 30.7095 7.27273C30.7095 8.29946 31.56 9.15508 32.5809 9.15508C33.6867 9.15508 34.5375 8.29946 34.5375 7.27273C34.5375 6.16042 33.6867 5.30481 32.5809 5.30481ZM100.124 0V5.90374C95.5307 5.90374 91.8729 9.58288 91.8729 14.2032C91.8729 18.738 95.5307 22.5026 100.124 22.5026V28.4064C92.2982 28.4064 85.9182 22.0749 85.9182 14.2032C85.9182 6.33156 92.2982 0 100.124 0ZM100.295 11.6364V17.4545H107.1V24.2994H112.885V11.6364H100.295Z" fill="white"></path>
    <path id="Vector_2" d="M113.164 26.2334H115.022V26.623H114.279V29.1554H113.907V26.623H113.164V26.2334Z" fill="white"></path>
    <path id="Vector_3" d="M116.879 28.571H116.6L115.764 27.2073V29.1554H115.393V26.2334H115.671L116.786 27.9865L117.808 26.2334H118.086V29.1554H117.715V27.2073L116.879 28.571Z" fill="white"></path>
  </g>
</svg>
