<?xml version="1.0" encoding="UTF-8"?>
<svg xmlns="http://www.w3.org/2000/svg" width="127" height="60" viewBox="0 0 127 60" fill="none">
  <path fill-rule="evenodd" clip-rule="evenodd" d="M112.346 30.5798C112.346 23.6764 108.981 18.2292 102.55 18.2292C96.0912 18.2292 92.1835 23.6764 92.1835 30.5259C92.1835 38.6427 96.7968 42.7416 103.418 42.7416C106.647 42.7416 109.09 42.0135 110.935 40.9888V35.5955C109.09 36.5124 106.973 37.0787 104.287 37.0787C101.654 37.0787 99.3205 36.1618 99.022 32.9798H112.292C112.292 32.6292 112.346 31.227 112.346 30.5798ZM98.9406 28.018C98.9406 24.9708 100.813 23.7034 102.523 23.7034C104.178 23.7034 105.942 24.9708 105.942 28.018H98.9406Z" fill="white"></path>
  <path fill-rule="evenodd" clip-rule="evenodd" d="M81.7087 18.2292C79.0493 18.2292 77.3397 19.4697 76.3899 20.3326L76.0372 18.6607H70.0671V50.1034L76.8513 48.6742L76.8784 41.0427C77.8553 41.7439 79.2936 42.7416 81.6816 42.7416C86.5391 42.7416 90.9624 38.8585 90.9624 30.3101C90.9352 22.4899 86.4577 18.2292 81.7087 18.2292ZM80.0805 36.809C78.4795 36.809 77.5297 36.2427 76.8784 35.5416L76.8513 25.5371C77.5568 24.7551 78.5337 24.2158 80.0805 24.2158C82.55 24.2158 84.2596 26.9663 84.2596 30.4989C84.2596 34.1124 82.5771 36.809 80.0805 36.809Z" fill="white"></path>
  <path fill-rule="evenodd" clip-rule="evenodd" d="M60.7321 16.6382L67.5434 15.182V9.70789L60.7321 11.1371V16.6382Z" fill="white"></path>
  <path d="M67.5434 18.6877H60.7321V42.2832H67.5434V18.6877Z" fill="white"></path>
  <path fill-rule="evenodd" clip-rule="evenodd" d="M53.4323 20.6832L52.9981 18.6877H47.1365V42.2832H53.9207V26.2922C55.5218 24.2158 58.2355 24.5933 59.0767 24.8899V18.6877C58.2083 18.3641 55.0333 17.7708 53.4323 20.6832Z" fill="white"></path>
  <path fill-rule="evenodd" clip-rule="evenodd" d="M39.8639 12.836L33.2425 14.2382L33.2154 35.8382C33.2154 39.8293 36.2275 42.7686 40.2438 42.7686C42.469 42.7686 44.0972 42.3641 44.9927 41.8787V36.4045C44.1243 36.7551 39.8367 37.9955 39.8367 34.0045V24.4315H44.9927V18.6877H39.8367L39.8639 12.836Z" fill="white"></path>
  <path fill-rule="evenodd" clip-rule="evenodd" d="M21.5194 25.5371C21.5194 24.4854 22.3878 24.0809 23.8261 24.0809C25.8885 24.0809 28.4936 24.7012 30.556 25.8068V19.4697C28.3036 18.5798 26.0784 18.2292 23.8261 18.2292C18.3173 18.2292 14.6538 21.0877 14.6538 25.8607C14.6538 33.3034 24.9658 32.1169 24.9658 35.3259C24.9658 36.5663 23.8803 36.9708 22.3607 36.9708C20.1083 36.9708 17.2318 36.054 14.9523 34.8135V41.2315C17.4761 42.3101 20.0269 42.7686 22.3607 42.7686C28.0051 42.7686 31.8857 39.991 31.8857 35.1641C31.8585 27.1281 21.5194 28.5573 21.5194 25.5371Z" fill="white"></path>
</svg>
