<?xml version="1.0" encoding="utf-8"?><svg viewBox="0 0 1539 677" xmlns="http://www.w3.org/2000/svg" xmlns:xlink="http://www.w3.org/1999/xlink"><style>:root>svg{display:none}:root>svg:target{display:block}</style><svg viewBox="0 0 108 108" fill="none" id="about-links-1" xmlns="http://www.w3.org/2000/svg"><path d="M53.975 1l6.861 27.394L80.488 8.106l-7.743 27.15 27.15-7.793-20.29 19.652L107 53.975l-27.394 6.861 20.288 19.652-27.15-7.743 7.744 27.15-19.652-20.29L53.976 107l-6.861-27.394-19.652 20.288 7.792-27.15-27.198 7.744 20.337-19.652L1 53.976l27.394-6.861L8.057 27.463l27.198 7.792-7.792-27.15 19.652 20.29L53.975 1z" fill="#fff" stroke="#232A33" stroke-width="2" stroke-miterlimit="10" stroke-linejoin="round"/></svg><svg viewBox="0 0 194 235" fill="none" id="about-links-2" xmlns="http://www.w3.org/2000/svg"><path d="M96.57 96.708c52.781 0 95.569-9.131 95.569-20.395 0-11.265-42.788-20.396-95.57-20.396C43.788 55.917 1 65.048 1 76.312c0 11.265 42.788 20.396 95.57 20.396z" stroke="#232A33" stroke-width="2" stroke-miterlimit="10"/><path d="M96.57 124.167c52.781 0 95.569-9.132 95.569-20.396 0-11.264-42.788-20.396-95.57-20.396C43.788 83.375 1 92.507 1 103.771c0 11.264 42.788 20.396 95.57 20.396zM96.57 41.792c52.781 0 95.569-9.132 95.569-20.396C192.139 10.132 149.351 1 96.569 1 43.788 1 1 10.132 1 21.396 1 32.66 43.788 41.792 96.57 41.792z" stroke="#232A33" stroke-width="2" stroke-miterlimit="10"/><path d="M96.57 69.25c52.781 0 95.569-9.132 95.569-20.396 0-11.264-42.788-20.396-95.57-20.396C43.788 28.458 1 37.59 1 48.854 1 60.118 43.788 69.25 96.57 69.25zM96.57 151.625c52.781 0 95.569-9.131 95.569-20.396 0-11.264-42.788-20.396-95.57-20.396C43.788 110.833 1 119.965 1 131.229c0 11.265 42.788 20.396 95.57 20.396z" stroke="#232A33" stroke-width="2" stroke-miterlimit="10"/><path d="M96.57 179.083c52.781 0 95.569-9.131 95.569-20.395 0-11.265-42.788-20.396-95.57-20.396C43.788 138.292 1 147.423 1 158.688c0 11.264 42.788 20.395 95.57 20.395z" stroke="#232A33" stroke-width="2" stroke-miterlimit="10"/><path d="M96.57 206.542c52.781 0 95.569-9.132 95.569-20.396 0-11.264-42.788-20.396-95.57-20.396C43.788 165.75 1 174.882 1 186.146c0 11.264 42.788 20.396 95.57 20.396z" stroke="#232A33" stroke-width="2" stroke-miterlimit="10"/><path d="M96.57 234c52.781 0 95.569-9.132 95.569-20.396 0-11.264-42.788-20.396-95.57-20.396C43.788 193.208 1 202.34 1 213.604 1 224.868 43.788 234 96.57 234z" stroke="#232A33" stroke-width="2" stroke-miterlimit="10"/></svg><svg viewBox="0 0 492 177" fill="none" id="about-links-3" xmlns="http://www.w3.org/2000/svg"><path d="M491 88.245c0-47.482-38.714-85.974-86.471-85.974-47.756 0-86.47 38.492-86.47 85.974 0 47.482 38.714 85.974 86.47 85.974 47.757 0 86.471-38.492 86.471-85.974zM173.941 88.245c0-47.482-38.714-85.974-86.47-85.974C39.714 2.271 1 40.763 1 88.245c0 47.482 38.714 85.974 86.47 85.974 47.757 0 86.471-38.492 86.471-85.974z" stroke="#232A33" stroke-width="2" stroke-miterlimit="10"/><path d="M282.278 88.245c0-47.482-38.492-85.974-85.974-85.974-47.482 0-85.973 38.492-85.973 85.974 0 47.482 38.491 85.974 85.973 85.974s85.974-38.492 85.974-85.974z" stroke="#232A33" stroke-width="2" stroke-miterlimit="10"/><path d="M304.726 175.951c48.168 0 87.216-39.044 87.216-87.208 0-48.165-39.048-87.21-87.216-87.21-48.168 0-87.216 39.045-87.216 87.21 0 48.164 39.048 87.208 87.216 87.208z" fill="#fff" stroke="#232A33" stroke-width="2" stroke-miterlimit="10"/><path d="M363.037 108.945c-8.402 24.102-31.306 41.404-58.211 41.404-26.905 0-49.809-17.302-58.211-41.404M357.235 107.944s4.901 2.601 10.502 2.101M251.716 107.944s-4.901 2.601-10.502 2.101" stroke="#232A33" stroke-width="2" stroke-miterlimit="10"/><path d="M326.531 93.843c7.733 0 14.002-13.209 14.002-29.503s-6.269-29.503-14.002-29.503c-7.734 0-14.003 13.21-14.003 29.503 0 16.294 6.269 29.503 14.003 29.503zM282.922 93.843c7.733 0 14.002-13.209 14.002-29.503s-6.269-29.503-14.002-29.503c-7.734 0-14.003 13.21-14.003 29.503 0 16.294 6.269 29.503 14.003 29.503z" fill="#232A33"/></svg><svg viewBox="0 0 95 85" fill="none" id="about-links-4" xmlns="http://www.w3.org/2000/svg"><path d="M47.5 83.557L8.217 42.71l-.002-.002c-9.493-9.813-9.743-24.895-.01-34.68 4.843-4.868 11.24-6.92 17.671-6.92 6.428 0 12.82 2.05 17.664 6.913l3.237 3.389.723.757.723-.757 3.23-3.381c9.743-9.373 25.608-9.37 35.35.007 9.724 9.785 9.473 24.862-.018 34.672l-.002.002L47.5 83.557z" fill="#fff" stroke="#232A33" stroke-width="2"/></svg><svg viewBox="0 0 1539 405" fill="none" id="arrow-cta" xmlns="http://www.w3.org/2000/svg"><path d="M1 404l309.188-137.641 79.791 85.776L1034.29 84.833l167.56 119.688L1525 21" stroke="#fff" stroke-width="2"/><path d="M1493 13.381l32.86 5.878-6.99 32.64M51 332l176-81M80 286l48-22M1294.35 211.64L1462.27 115M1353.49 207.689l56.8-32.689" stroke="#fff" stroke-width="2"/></svg><svg viewBox="0 0 1539 405" fill="none" id="arrow-cta-blue" xmlns="http://www.w3.org/2000/svg"><path d="M1 404l309.188-137.641 79.791 85.776L1034.29 84.833l167.56 119.688L1525 21" stroke="#3C39C6" stroke-width="2"/><path d="M1493 13.381l32.86 5.878-6.99 32.64M51 332l176-81M80 286l48-22M1294.35 211.64L1462.27 115M1353.49 207.689l56.8-32.689" stroke="#3C39C6" stroke-width="2"/></svg><svg viewBox="0 0 14 9" fill="none" id="arrow-down" xmlns="http://www.w3.org/2000/svg"><path d="M13 1L7 7 1 1" stroke="#fff" stroke-width="2"/></svg><svg viewBox="0 0 19 11" fill="none" id="arrow-down-select" xmlns="http://www.w3.org/2000/svg"><path d="M1 1l8.5 8L18 1" stroke="#fff" stroke-width="2"/></svg><svg viewBox="0 0 32 33" fill="none" id="arrow-left-pagination" xmlns="http://www.w3.org/2000/svg"><path d="M17 31.5l-15-15 15-15M32 16.5H2" stroke="#121212" stroke-width="2"/></svg><svg viewBox="0 0 11 19" fill="none" id="arrow-modal" xmlns="http://www.w3.org/2000/svg"><path d="M1 18l8-8.5L1 1" stroke="#212121" stroke-width="2"/></svg><svg viewBox="0 0 14 17" fill="none" id="arrow-play" xmlns="http://www.w3.org/2000/svg"><path d="M14 8.5L.5 16.294V.706L14 8.5z" fill="#3C39C6"/></svg><svg viewBox="0 0 15 14" fill="none" id="arrow-right" xmlns="http://www.w3.org/2000/svg"><path d="M7.455 1l6 6-6 6M0 6.956h13.5" stroke="#3C39C6" stroke-width="2"/></svg><svg viewBox="0 0 32 33" fill="none" id="arrow-right-pagination" xmlns="http://www.w3.org/2000/svg"><path d="M15 1.5l15 15-15 15M0 16.5h30" stroke="#121212" stroke-width="2"/></svg><svg viewBox="0 0 32 32" fill="none" id="arrow-slider" xmlns="http://www.w3.org/2000/svg"><path d="M15 1l15 15-15 15M0 16h30" stroke="#fff" stroke-width="2"/></svg><svg viewBox="0 0 11 20" fill="none" id="arrow-spoiler" xmlns="http://www.w3.org/2000/svg"><path d="M1 18.5L9 10 1 1.5" stroke="#fff" stroke-width="2"/></svg><svg viewBox="0 0 17 19" fill="none" id="arrow-up" xmlns="http://www.w3.org/2000/svg"><path d="M1 9.487l7.5-7.555L16 9.487M8.445 18.875v-17" stroke="#3C39C6" stroke-width="2"/></svg><svg viewBox="0 0 50 50" fill="none" id="award-star" xmlns="http://www.w3.org/2000/svg"><path d="M25 2.5l7.5 15 15 1.875-10.3 11.55L40 47.5 25 40l-15 7.5 2.825-16.575L2.5 19.375l15-1.875 7.5-15z" fill="#3C39C6"/></svg><svg viewBox="0 0 270 270" fill="none" id="big-play" xmlns="http://www.w3.org/2000/svg"><circle cx="135" cy="135" r="134" stroke="#fff" stroke-width="2"/><path d="M105.625 84.121L193.75 135l-88.125 50.879V84.121z" fill="#fff" stroke="#fff" stroke-width="2"/></svg><svg viewBox="0 0 45 45" fill="none" id="care-animation" xmlns="http://www.w3.org/2000/svg"><path d="M28.125 3.75c-5.081 0-9.469 2.888-11.663 7.088a13.24 13.24 0 0 0-5.624 5.624A13.151 13.151 0 0 0 3.75 28.125c0 7.256 5.869 13.125 13.125 13.125 5.081 0 9.469-2.888 11.663-7.087a13.24 13.24 0 0 0 5.625-5.625 13.151 13.151 0 0 0 7.087-11.663c0-7.256-5.869-13.125-13.125-13.125zM16.875 37.5a9.379 9.379 0 0 1-7.5-15c0 7.256 5.869 13.125 13.125 13.125a9.347 9.347 0 0 1-5.625 1.875zm5.625-5.625a9.379 9.379 0 0 1-7.5-15C15 24.113 20.869 29.981 28.125 30a9.347 9.347 0 0 1-5.625 1.875zm8.813-6.188a9.415 9.415 0 0 1-3.188.563c-5.175 0-9.375-4.2-9.375-9.375 0-1.125.206-2.194.563-3.188a9.416 9.416 0 0 1 3.187-.562c5.175 0 9.375 4.2 9.375 9.375a9.413 9.413 0 0 1-.563 3.188zm4.312-3.187c0-7.238-5.869-13.106-13.125-13.125A9.379 9.379 0 0 1 35.625 22.5z" fill="#3C39C6"/></svg><svg viewBox="0 0 45 45" fill="none" id="care-influence" xmlns="http://www.w3.org/2000/svg"><path d="M36.15 15.588v12.706c3.315 0 5.85-2.753 5.85-6.353 0-3.6-2.535-6.353-5.85-6.353zm-15.6-2.117H6.9c-2.145 0-3.9 1.905-3.9 4.235v8.47c0 2.33 1.755 4.236 3.9 4.236h1.95v6.353c0 2.33 1.755 4.235 3.9 4.235h3.9V30.412h3.9l7.8 8.47h3.9V5h-3.9l-7.8 8.47z" fill="#3C39C6"/></svg><svg viewBox="0 0 45 45" fill="none" id="care-production" xmlns="http://www.w3.org/2000/svg"><path d="M33.467 22.14l-1.326-1.326L13.58 39.377H5.625V31.42l21.212-21.213 10.607 10.606a1.875 1.875 0 0 1 0 2.652L24.187 36.724l-2.653-2.651L33.467 22.14zm1.325-17.235l5.305 5.302a1.875 1.875 0 0 1 0 2.652l-2.653 2.653-7.954-7.956 2.651-2.651a1.875 1.875 0 0 1 2.651 0z" fill="#3C39C6"/></svg><svg viewBox="0 0 45 45" fill="none" id="care-smm" xmlns="http://www.w3.org/2000/svg"><path d="M22.426 11.764C16.333 2.711 4 7.643 4 17.504 4 24.91 20.907 36.495 22.426 38 23.955 36.494 41 24.91 41 17.505c0-9.787-12.47-14.794-18.574-5.74z" fill="#3C39C6"/></svg><svg viewBox="0 0 45 45" fill="none" id="care-strategy" xmlns="http://www.w3.org/2000/svg"><path d="M12.956 10.313l4.313 4.293-2.663 2.663-4.293-4.313-4.294 4.313-2.663-2.663 4.313-4.293-4.313-4.294L6.02 3.356l4.294 4.313 4.293-4.313L17.27 6.02l-4.313 4.293zm28.688 20.08l-2.663-2.662-4.293 4.313-4.294-4.313-2.663 2.663 4.313 4.294-4.313 4.293 2.663 2.663 4.294-4.313 4.293 4.313 2.663-2.663-4.313-4.294 4.313-4.293zM38.25 12.807l-6.037 7.819-2.963-2.381 2.194-2.813A17.024 17.024 0 0 0 18.956 25.97a8.437 8.437 0 1 1-4.893-1.594 7.5 7.5 0 0 1 1.462.15 21.131 21.131 0 0 1 15.281-12.787l-2.68-2.025 2.38-2.963 7.744 6.056zm-19.5 20.007a4.687 4.687 0 1 0-9.374 0 4.687 4.687 0 0 0 9.374 0z" fill="#3C39C6"/></svg><svg viewBox="0 0 45 45" fill="none" id="care-target" xmlns="http://www.w3.org/2000/svg"><path d="M22.5 29.25a6.75 6.75 0 1 0 0-13.5 6.75 6.75 0 0 0 0 13.5z" fill="#3C39C6"/><path d="M24.75 4.655V0h-4.5v4.655A18.018 18.018 0 0 0 4.655 20.25H0v4.5h4.655A18.016 18.016 0 0 0 20.25 40.345V45h4.5v-4.655A18.015 18.015 0 0 0 40.345 24.75H45v-4.5h-4.655A18.018 18.018 0 0 0 24.75 4.655zM22.5 36C15.055 36 9 29.945 9 22.5S15.055 9 22.5 9 36 15.055 36 22.5 29.945 36 22.5 36z" fill="#3C39C6"/></svg><svg viewBox="0 0 100 100" fill="none" id="case-play" xmlns="http://www.w3.org/2000/svg"><circle cx="50" cy="50" r="49" stroke="#fff" stroke-width="2"/><path d="M39.75 32.246L70.5 50 39.75 67.754V32.245z" fill="#fff" stroke="#fff" stroke-width="2"/></svg><svg viewBox="0 0 21 26" fill="none" id="case-solution" xmlns="http://www.w3.org/2000/svg"><circle cx="10" cy="16" r="9" stroke="#3C39C6" stroke-width="2"/><path d="M4.457 14l5 5L20 8" stroke="#3C39C6" stroke-width="2"/></svg><svg viewBox="0 0 30 23" fill="none" id="checkbox" xmlns="http://www.w3.org/2000/svg"><path d="M2 9.2L12.636 20 28 2" stroke="#3C39C6" stroke-width="4"/></svg><svg viewBox="0 0 18 18" fill="none" id="close" xmlns="http://www.w3.org/2000/svg"><path d="M1 1l16 16M17 1L1 17" stroke="#fff" stroke-width="2"/></svg><svg viewBox="0 0 44 44" fill="none" id="close-modal" xmlns="http://www.w3.org/2000/svg"><path d="M2 2l40 40M42 2L2 42" stroke="#fff" stroke-width="4"/></svg><svg viewBox="0 0 677 677" fill="none" id="cta-video" xmlns="http://www.w3.org/2000/svg"><g opacity=".5" stroke="#fff" stroke-width="2"><path opacity=".5" d="M338.5 676C524.896 676 676 524.896 676 338.5S524.896 1 338.5 1 1 152.104 1 338.5 152.104 676 338.5 676z"/><path opacity=".5" d="M263.337 208.315L488.825 338.5 263.337 468.685v-260.37z"/></g></svg><svg viewBox="0 0 40 40" fill="none" id="faq" xmlns="http://www.w3.org/2000/svg"><circle cx="20" cy="20" r="20" fill="#3C39C6"/><path d="M20 11v18M29 20H11" stroke="#F3F3F3" stroke-width="3"/></svg><svg viewBox="0 0 9 17" fill="none" id="fb" xmlns="http://www.w3.org/2000/svg"><path d="M.26 8.666h1.765v7.343c0 .145.116.262.26.262h2.993c.144 0 .26-.117.26-.262V8.7h2.03a.26.26 0 0 0 .258-.233l.308-2.703a.264.264 0 0 0-.064-.205.259.259 0 0 0-.194-.088H5.538V3.778c0-.51.272-.77.81-.77h1.528c.143 0 .26-.117.26-.262V.264a.261.261 0 0 0-.26-.262H5.769C5.755.002 5.722 0 5.673 0c-.366 0-1.636.072-2.64 1.005-1.111 1.034-.957 2.271-.92 2.486v1.981H.26a.261.261 0 0 0-.26.263v2.669c0 .145.116.262.26.262z" fill="#fff"/></svg><svg viewBox="0 0 139 102" fill="none" id="formats-1" xmlns="http://www.w3.org/2000/svg"><path d="M1 15.45h136.058v81.014a3.789 3.789 0 0 1-3.798 3.789H4.798A3.788 3.788 0 0 1 1 96.464V15.45zM4.798 1H133.26a3.789 3.789 0 0 1 3.798 3.79v10.66H1V4.79A3.796 3.796 0 0 1 4.798 1z" fill="#fff" stroke="#121212" stroke-width="2" stroke-miterlimit="10"/><path d="M9.71 10.511A2.289 2.289 0 0 0 12 8.225a2.289 2.289 0 0 0-2.29-2.286 2.289 2.289 0 0 0-2.292 2.286A2.289 2.289 0 0 0 9.71 10.51zM17.608 10.511A2.289 2.289 0 0 0 19.9 8.225a2.289 2.289 0 0 0-2.292-2.286 2.289 2.289 0 0 0-2.29 2.286 2.289 2.289 0 0 0 2.29 2.286zM25.52 10.511a2.289 2.289 0 0 0 2.291-2.286 2.289 2.289 0 0 0-2.29-2.286 2.289 2.289 0 0 0-2.292 2.286 2.289 2.289 0 0 0 2.291 2.286z" fill="#232A33"/></svg><svg viewBox="0 0 104 104" fill="none" id="formats-2" xmlns="http://www.w3.org/2000/svg"><path d="M103.503 57.096l-31.676-8.484-31.7-8.484 8.49 31.654 8.49 31.68 15.54-21.112 15.638 15.63 9.732-9.725-15.64-15.63 21.126-15.529z" fill="#121212"/><path d="M40.126 5l4.568 18.16L57.702 9.712l-5.139 18.01 17.998-5.16-13.455 13.025 18.172 4.54-18.172 4.54L70.561 57.69l-17.998-5.135 5.139 17.986-13.008-13.446-4.568 18.16-4.542-18.16-13.008 13.446 5.138-17.986-18.022 5.136 13.48-13.025L5 40.127l18.171-4.54-13.48-13.023 18.023 5.16-5.138-18.01 13.008 13.445L40.126 5z" fill="#fff" stroke="#232A33" stroke-width="2" stroke-miterlimit="10"/><path fill-rule="evenodd" clip-rule="evenodd" d="M57.113 44.674L70.561 57.69l-17.998-5.135 5.139 17.986-13.008-13.446-.008.032-4.56-17 16.987 4.546z" fill="#121212"/><path d="M57.113 44.674l.696-.719-.187-.18-.25-.067-.259.966zM70.561 57.69l-.275.962 3.837 1.095-2.867-2.775-.695.718zm-17.998-5.135l.275-.962-1.73-.493.494 1.73.961-.275zm5.139 17.986l-.719.695 2.778 2.871-1.098-3.841-.961.275zM44.694 57.096l.719-.695-1.25-1.292-.439 1.743.97.244zm-.008.032l-.966.259.997 3.717.939-3.732-.97-.244zm-4.56-17l.259-.966-1.673-.448.449 1.673.965-.26zm16.291 5.264L69.865 58.41l1.391-1.437L57.81 43.955l-1.392 1.437zM70.835 56.73l-17.997-5.136-.55 1.924 17.999 5.135.548-1.923zm-19.233-3.9l5.138 17.986 1.923-.549-5.138-17.986-1.923.55zm6.819 17.016L45.413 56.401l-1.438 1.39 13.008 13.446 1.438-1.39zM43.724 56.852l-.008.032 1.94.488.008-.032-1.94-.488zm-4.563-16.465l4.56 17 1.93-.518-4.559-17-1.931.518zm18.21 3.32l-16.986-4.545-.517 1.932 16.986 4.546.517-1.932z" fill="#fff"/></svg><svg viewBox="0 0 42 42" fill="none" id="formats-play" xmlns="http://www.w3.org/2000/svg"><path d="M21.029 40.722c-10.912 0-19.76-8.829-19.76-19.717 0-10.887 8.848-19.716 19.76-19.716s19.76 8.829 19.76 19.716c0 10.888-8.836 19.717-19.76 19.717z" fill="#fff" stroke="#121212" stroke-width="2" stroke-miterlimit="10"/><path d="M30.169 20.31l-13.47-7.755a.793.793 0 0 0-1.19.682v15.524c0 .606.659.997 1.19.682l13.47-7.756a.794.794 0 0 0 0-1.377z" fill="#121212"/></svg><svg viewBox="0 0 17 17" fill="none" id="in" xmlns="http://www.w3.org/2000/svg"><path d="M16.23 4.785c-.038-.865-.178-1.46-.378-1.975a3.972 3.972 0 0 0-.941-1.443A4.006 4.006 0 0 0 13.47.43c-.519-.2-1.11-.34-1.975-.378C10.625.01 10.348 0 8.139 0c-2.21 0-2.486.01-3.354.048-.865.038-1.46.178-1.975.378a3.97 3.97 0 0 0-1.443.941c-.413.407-.734.9-.938 1.44-.2.518-.34 1.11-.378 1.974C.01 5.653 0 5.93 0 8.14s.01 2.486.048 3.354c.038.864.178 1.459.378 1.974.207.547.528 1.037.941 1.444.407.413.9.734 1.44.937.518.2 1.11.34 1.975.379.867.038 1.144.047 3.354.047s2.486-.01 3.354-.047c.864-.038 1.459-.178 1.974-.379a4.162 4.162 0 0 0 2.381-2.38c.2-.52.34-1.11.379-1.975.038-.868.047-1.145.047-3.354 0-2.21-.003-2.486-.041-3.354zm-1.466 6.644c-.035.795-.168 1.224-.28 1.51a2.7 2.7 0 0 1-1.545 1.546c-.286.11-.718.244-1.51.28-.858.037-1.116.047-3.287.047s-2.432-.01-3.287-.048c-.795-.035-1.224-.168-1.51-.28a2.504 2.504 0 0 1-.935-.607 2.53 2.53 0 0 1-.607-.934c-.112-.287-.245-.719-.28-1.51-.038-.859-.048-1.117-.048-3.288s.01-2.432.048-3.287c.035-.795.168-1.224.28-1.51.13-.353.337-.674.61-.935.264-.27.582-.477.935-.607.286-.111.718-.245 1.51-.28.858-.038 1.116-.048 3.287-.048 2.175 0 2.432.01 3.287.048.795.035 1.224.169 1.51.28.353.13.675.337.935.607.27.264.477.582.607.935.112.286.245.718.28 1.51.038.858.048 1.116.048 3.287s-.01 2.426-.048 3.284z" fill="#fff"/><path d="M8.139 3.958a4.182 4.182 0 0 0 0 8.362 4.182 4.182 0 0 0 0-8.361zm0 6.893a2.712 2.712 0 1 1 0-5.425 2.712 2.712 0 0 1 0 5.425zM13.46 3.793a.976.976 0 1 1-1.951 0 .976.976 0 0 1 1.952 0z" fill="#fff"/></svg><svg viewBox="0 0 14 14" fill="none" id="lin" xmlns="http://www.w3.org/2000/svg"><path d="M3.157 4.348H.435a.219.219 0 0 0-.22.219v8.745c0 .12.099.218.22.218h2.722c.12 0 .218-.098.218-.218V4.567a.219.219 0 0 0-.218-.219zM1.796 0C.806 0 0 .805 0 1.794c0 .99.806 1.795 1.796 1.795s1.795-.805 1.795-1.795C3.591.804 2.786 0 1.796 0zM10.08 4.13c-1.094 0-1.902.47-2.392 1.004v-.568a.219.219 0 0 0-.219-.218H4.862a.219.219 0 0 0-.218.218v8.745c0 .121.097.219.218.219h2.716c.121 0 .219-.098.219-.219V8.985c0-1.458.396-2.026 1.412-2.026 1.107 0 1.195.91 1.195 2.1v4.252c0 .121.098.219.219.219h2.717c.12 0 .219-.098.219-.219V8.515c0-2.168-.414-4.385-3.48-4.385z" fill="#fff"/></svg><svg viewBox="0 0 20 16" fill="none" id="menu" xmlns="http://www.w3.org/2000/svg"><path d="M0 1h20M6.78 7.83H20M0 15h20" stroke="#fff" stroke-width="2"/></svg><svg viewBox="0 0 66 46" fill="none" id="quote-1" xmlns="http://www.w3.org/2000/svg"><path d="M28.61 32.89c0 3.47-1.313 6.376-3.938 8.72-2.625 2.343-5.906 3.515-9.844 3.515-3.844 0-7.172-1.313-9.984-3.938C2.03 38.47.625 34.578.625 29.517c0-3 .61-6 1.828-9 1.219-3 2.766-5.813 4.64-8.438 1.97-2.625 4.079-4.969 6.329-7.031 2.25-2.063 4.406-3.656 6.469-4.781l7.03 6.89c-1.124.469-2.296 1.172-3.515 2.11a21.95 21.95 0 0 0-3.375 3.234C19 13.625 18.156 14.938 17.5 16.438c-.656 1.406-.984 2.812-.984 4.218 3.468.469 6.328 1.782 8.578 3.938 2.343 2.062 3.515 4.828 3.515 8.297zm36.562 0c0 3.47-1.313 6.376-3.938 8.72-2.625 2.343-5.906 3.515-9.843 3.515-3.844 0-7.172-1.313-9.985-3.938-2.812-2.718-4.218-6.609-4.218-11.671 0-3 .609-6 1.828-9 1.218-3 2.765-5.813 4.64-8.438 1.969-2.625 4.078-4.969 6.328-7.031 2.25-2.063 4.407-3.656 6.47-4.781l7.03 6.89c-1.125.469-2.297 1.172-3.515 2.11a21.94 21.94 0 0 0-3.375 3.234c-1.032 1.125-1.875 2.438-2.532 3.938-.656 1.406-.984 2.812-.984 4.218 3.469.469 6.328 1.782 8.578 3.938 2.344 2.062 3.516 4.828 3.516 8.297z" fill="#4CBE9E"/></svg><svg viewBox="0 0 66 46" fill="none" id="quote-2" xmlns="http://www.w3.org/2000/svg"><path d="M37.39 13.11c0-3.47 1.313-6.376 3.938-8.72C43.953 2.048 47.234.876 51.172.876c3.844 0 7.172 1.313 9.984 3.938 2.813 2.718 4.219 6.609 4.219 11.671 0 3-.61 6-1.828 9a41.043 41.043 0 0 1-4.64 8.438c-1.97 2.625-4.079 4.969-6.329 7.031-2.25 2.063-4.406 3.656-6.469 4.781l-7.03-6.89c1.124-.469 2.296-1.172 3.515-2.11a21.955 21.955 0 0 0 3.375-3.234c1.031-1.125 1.875-2.438 2.531-3.938.656-1.406.984-2.812.984-4.218-3.468-.469-6.328-1.782-8.578-3.938-2.343-2.062-3.515-4.828-3.515-8.297zm-36.562 0c0-3.47 1.313-6.376 3.938-8.72C7.39 2.048 10.672.876 14.609.876c3.844 0 7.172 1.313 9.985 3.938 2.812 2.718 4.218 6.609 4.218 11.671 0 3-.609 6-1.828 9a41.043 41.043 0 0 1-4.64 8.438c-1.969 2.625-4.078 4.969-6.328 7.031-2.25 2.063-4.407 3.656-6.47 4.781l-7.03-6.89c1.125-.469 2.296-1.172 3.515-2.11A21.95 21.95 0 0 0 9.406 33.5c1.031-1.125 1.875-2.438 2.531-3.938.657-1.406.985-2.812.985-4.218-3.469-.469-6.328-1.782-8.578-3.938C2 19.344.828 16.578.828 13.11z" fill="#fff"/><path d="M61.156 4.813l.695-.72-.006-.006-.006-.006-.683.731zm-2.25 29.109l.8.6.007-.01.007-.009-.814-.581zM46.11 45.734l-.7.715.53.518.65-.355-.48-.878zm-7.03-6.89l-.386-.923-1.393.58 1.078 1.057.7-.714zm6.89-5.344l-.737-.676-.014.015-.013.015.764.646zm2.531-3.938l-.906-.422-.005.01-.005.012.916.4zm.984-4.218h1v-.874l-.866-.117-.134.99zm-8.578-3.938l.692-.722-.015-.014-.016-.015-.66.751zM24.594 4.813l.695-.72-.007-.006-.006-.006-.682.731zm-2.25 29.109l.8.6.007-.01.006-.009-.813-.581zM9.547 45.734l-.7.715.529.518.65-.355-.48-.878zm-7.031-6.89l-.385-.923-1.394.58 1.079 1.057.7-.714zm6.89-5.344l-.737-.676-.013.015-.013.015.763.646zm2.531-3.938l-.906-.422-.005.01-.005.012.916.4zm.985-4.218h1v-.874l-.866-.117-.134.99zm-8.578-3.938l.692-.722-.016-.014-.016-.015-.66.751zM38.39 13.11c0-3.179 1.187-5.815 3.603-7.972l-1.332-1.492c-2.834 2.53-4.271 5.706-4.271 9.464h2zm3.603-7.972c2.42-2.16 5.455-3.262 9.178-3.262v-2c-4.152 0-7.68 1.243-10.51 3.77l1.332 1.492zm9.178-3.262c3.59 0 6.674 1.216 9.302 3.669l1.365-1.463C58.84 1.284 55.269-.125 51.172-.125v2zm9.29 3.656c2.564 2.48 3.913 6.078 3.913 10.953h2c0-5.25-1.463-9.432-4.524-12.39l-1.39 1.437zm3.913 10.953c0 2.861-.58 5.734-1.755 8.624l1.853.753c1.264-3.11 1.902-6.238 1.902-9.377h-2zm-1.755 8.624a40.038 40.038 0 0 1-4.527 8.233l1.627 1.162a42.04 42.04 0 0 0 4.753-8.642l-1.853-.753zm-4.514 8.214c-1.934 2.58-4.002 4.876-6.204 6.894l1.352 1.474c2.299-2.107 4.45-4.497 6.452-7.168l-1.6-1.2zm-6.204 6.894c-2.207 2.023-4.297 3.564-6.272 4.64l.958 1.756c2.151-1.173 4.373-2.82 6.666-4.922l-1.352-1.474zM46.81 45.02l-7.03-6.89-1.4 1.428 7.03 6.89 1.4-1.428zm-7.346-5.253c1.223-.51 2.47-1.263 3.74-2.24l-1.219-1.585c-1.167.897-2.264 1.55-3.29 1.979l.769 1.846zm3.74-2.24a22.945 22.945 0 0 0 3.53-3.381l-1.528-1.292a20.946 20.946 0 0 1-3.221 3.088l1.22 1.585zm3.503-3.351c1.11-1.212 2.013-2.62 2.71-4.213l-1.832-.801c-.616 1.406-1.4 2.624-2.352 3.662l1.474 1.352zm2.7-4.19c.712-1.525 1.078-3.075 1.078-4.642h-2c0 1.245-.29 2.508-.89 3.796l1.812.845zm.212-5.633c-3.286-.444-5.941-1.677-8.02-3.669l-1.384 1.444c2.422 2.32 5.485 3.713 9.136 4.207l.268-1.982zm-8.051-3.698c-2.103-1.85-3.176-4.329-3.176-7.546h-2c0 3.72 1.27 6.773 3.855 9.048l1.32-1.502zM1.828 13.11c0-3.179 1.188-5.815 3.604-7.972L4.1 3.645C1.266 6.175-.172 9.35-.172 13.109h2zm3.604-7.972c2.42-2.16 5.454-3.262 9.177-3.262v-2c-4.151 0-7.679 1.243-10.51 3.77l1.333 1.492zm9.177-3.262c3.59 0 6.675 1.216 9.302 3.669l1.365-1.463C22.28 1.284 18.706-.125 14.61-.125v2zm9.29 3.656c2.564 2.48 3.913 6.078 3.913 10.953h2c0-5.25-1.463-9.432-4.523-12.39l-1.39 1.437zm3.913 10.953c0 2.861-.58 5.734-1.754 8.624l1.853.753c1.263-3.11 1.901-6.238 1.901-9.377h-2zm-1.754 8.624a40.038 40.038 0 0 1-4.528 8.233l1.627 1.162a42.039 42.039 0 0 0 4.754-8.642l-1.853-.753zm-4.514 8.214c-1.935 2.58-4.003 4.876-6.204 6.894l1.351 1.474c2.3-2.107 4.45-4.497 6.453-7.168l-1.6-1.2zm-6.204 6.894c-2.207 2.023-4.298 3.564-6.272 4.64l.958 1.756c2.15-1.173 4.372-2.82 6.665-4.922l-1.351-1.474zm-5.093 4.804l-7.031-6.89-1.4 1.428 7.03 6.89 1.4-1.428zM2.9 39.767c1.223-.51 2.47-1.263 3.741-2.24l-1.22-1.585c-1.166.897-2.263 1.55-3.29 1.979l.77 1.846zm3.741-2.24a22.944 22.944 0 0 0 3.529-3.381l-1.527-1.292a20.944 20.944 0 0 1-3.221 3.088l1.219 1.585zm3.502-3.351c1.111-1.212 2.013-2.62 2.71-4.213l-1.832-.801c-.615 1.406-1.4 2.624-2.352 3.662l1.474 1.352zm2.7-4.19c.712-1.525 1.079-3.075 1.079-4.642h-2c0 1.245-.29 2.508-.89 3.796l1.812.845zm.213-5.633c-3.286-.444-5.942-1.677-8.02-3.669l-1.384 1.444c2.421 2.32 5.484 3.713 9.136 4.207l.268-1.982zm-8.052-3.698c-2.102-1.85-3.176-4.329-3.176-7.546h-2c0 3.72 1.27 6.773 3.855 9.048l1.321-1.502z" fill="#000"/></svg><svg viewBox="0 0 26 26" fill="none" id="search" xmlns="http://www.w3.org/2000/svg"><path d="M15.174 15.174l4.515 4.514" stroke="#fff" stroke-width="2"/><circle cx="12" cy="12" r="5" stroke="#fff" stroke-width="2"/></svg><svg viewBox="0 0 78 78" fill="none" id="smile-1" xmlns="http://www.w3.org/2000/svg"><g clip-path="url(#bpa)"><path d="M75.651 47.633c4.775-20.221-7.747-40.485-27.968-45.26C27.462-2.4 7.2 10.122 2.423 30.343c-4.774 20.221 7.748 40.484 27.97 45.26 20.22 4.774 40.484-7.748 45.258-27.97z" fill="#E6E6E6"/><path d="M18.715 32.623a3.31 3.31 0 0 1 3.333-3.333 3.31 3.31 0 0 1 3.332 3.333 3.31 3.31 0 0 1-3.332 3.333 3.31 3.31 0 0 1-3.333-3.333zM52.62 32.623a3.31 3.31 0 0 1 3.332-3.333 3.31 3.31 0 0 1 3.333 3.333 3.31 3.31 0 0 1-3.333 3.333c-1.794 0-3.332-1.475-3.332-3.333z" fill="#121212"/><path d="M20.766 56.785C23.842 49.736 30.828 44.8 38.968 44.8c8.14 0 15.19 4.935 18.202 11.986M19.227 21.214l8.717 5.256M58.772 21.214l-8.716 5.256" stroke="#121212" stroke-width="2" stroke-miterlimit="10" stroke-linecap="round" stroke-linejoin="round"/></g><defs><clipPath id="bpa"><path fill="#fff" d="M0 0h78v78H0z"/></clipPath></defs></svg><svg viewBox="0 0 79 79" fill="none" id="smile-2" xmlns="http://www.w3.org/2000/svg"><g clip-path="url(#bqa)"><path d="M66.487 66.448c14.88-14.88 14.88-39.007 0-53.887-14.88-14.88-39.007-14.88-53.887 0-14.88 14.88-14.88 39.007 0 53.887 14.88 14.88 39.006 14.88 53.887 0z" fill="#D8D7F4"/><path d="M18.955 30.64a3.352 3.352 0 0 1 3.375-3.376 3.352 3.352 0 0 1 3.376 3.375 3.352 3.352 0 0 1-3.376 3.376 3.352 3.352 0 0 1-3.375-3.376zM53.294 30.64a3.352 3.352 0 0 1 3.376-3.376 3.352 3.352 0 0 1 3.375 3.375 3.352 3.352 0 0 1-3.376 3.376c-1.817 0-3.375-1.493-3.375-3.376z" fill="#121212"/><path d="M21.032 55.112c3.116-7.14 10.191-12.139 18.435-12.139 8.244 0 15.385 4.998 18.436 12.139" stroke="#121212" stroke-width="2" stroke-miterlimit="10" stroke-linecap="round" stroke-linejoin="round"/></g><defs><clipPath id="bqa"><path fill="#fff" d="M0 0h79v79H0z"/></clipPath></defs></svg><svg viewBox="0 0 78 79" fill="none" id="smile-3" xmlns="http://www.w3.org/2000/svg"><path d="M39.032 77.637c20.778 0 37.622-17.06 37.622-38.104 0-21.045-16.844-38.105-37.622-38.105S1.41 18.488 1.41 39.533c0 21.044 16.844 38.104 37.622 38.104z" fill="#C5EDE2"/><path d="M18.715 30.64c0-1.883 1.474-3.376 3.333-3.376 1.858 0 3.332 1.493 3.332 3.375 0 1.883-1.474 3.376-3.332 3.376-1.859 0-3.333-1.493-3.333-3.376zM52.62 30.64c0-1.883 1.474-3.376 3.332-3.376 1.86 0 3.333 1.493 3.333 3.375 0 1.883-1.474 3.376-3.333 3.376-1.794 0-3.332-1.493-3.332-3.376z" fill="#121212"/><path d="M19.548 49.919h38.904" stroke="#121212" stroke-width="2" stroke-miterlimit="10" stroke-linecap="round" stroke-linejoin="round"/></svg><svg viewBox="0 0 78 79" fill="none" id="smile-4" xmlns="http://www.w3.org/2000/svg"><g clip-path="url(#bsa)"><path d="M75.651 48.244c4.775-20.48-7.747-41.004-27.968-45.84C27.462-2.432 7.2 10.25 2.423 30.731c-4.774 20.48 7.748 41.003 27.97 45.84 20.22 4.835 40.484-7.847 45.258-28.327z" fill="#FFF0D7"/><path d="M18.715 30.64c0-1.883 1.474-3.376 3.333-3.376 1.858 0 3.332 1.493 3.332 3.375 0 1.883-1.474 3.376-3.332 3.376-1.859 0-3.333-1.493-3.333-3.376zM52.62 30.64c0-1.883 1.474-3.376 3.332-3.376 1.86 0 3.333 1.493 3.333 3.375 0 1.883-1.474 3.376-3.333 3.376-1.794 0-3.332-1.493-3.332-3.376z" fill="#121212"/><path d="M59.221 45.894c-2.692 8.763-10.703 15.06-20.253 15.06-9.486 0-17.561-6.361-20.253-15.06M20.381 44.92l-3.845 1.883M57.619 44.92l3.845 1.883" stroke="#121212" stroke-width="2" stroke-miterlimit="10" stroke-linecap="round" stroke-linejoin="round"/></g><defs><clipPath id="bsa"><path fill="#fff" d="M0 0h78v79H0z"/></clipPath></defs></svg><svg viewBox="0 0 79 79" fill="none" id="smile-5" xmlns="http://www.w3.org/2000/svg"><g clip-path="url(#bta)"><path d="M66.487 66.448c14.88-14.88 14.88-39.007 0-53.887-14.88-14.88-39.007-14.88-53.887 0-14.88 14.88-14.88 39.007 0 53.887 14.88 14.88 39.006 14.88 53.887 0z" fill="#FFEDF7"/><path d="M26.03 28.043c-1.298-.65-2.856-.195-3.505 1.103-.195.325-.26.585-.26.974 0-.39-.065-.649-.26-.974-.649-1.298-2.271-1.752-3.505-1.103a2.486 2.486 0 0 0-1.363 2.012c-.195 1.688 1.493 2.662 2.597 3.635l2.531 2.143c.78-.65 1.493-1.299 2.272-1.948.52-.454 1.104-.974 1.623-1.428.714-.65 1.298-1.233 1.233-2.272 0-.909-.519-1.753-1.363-2.142zM52.97 28.043c1.297-.65 2.855-.195 3.505 1.103.194.325.26.585.26.974 0-.39.064-.649.259-.974.649-1.298 2.272-1.752 3.505-1.103a2.486 2.486 0 0 1 1.363 2.012c.195 1.688-1.493 2.662-2.596 3.635l-2.532 2.143c-.779-.65-1.493-1.299-2.272-1.948-.52-.454-1.103-.974-1.623-1.428-.714-.65-1.298-1.233-1.233-2.272 0-.909.52-1.753 1.363-2.142z" fill="#121212" stroke="#121212" stroke-width="2" stroke-miterlimit="10" stroke-linecap="round" stroke-linejoin="round"/><path d="M59.98 45.894a21.41 21.41 0 0 1-20.513 15.06c-9.672 0-17.786-6.361-20.512-15.06M20.642 44.92l-3.894 1.883M58.357 44.92l3.895 1.883" stroke="#121212" stroke-width="2" stroke-miterlimit="10" stroke-linecap="round" stroke-linejoin="round"/></g><defs><clipPath id="bta"><path fill="#fff" d="M0 0h79v79H0z"/></clipPath></defs></svg><svg viewBox="0 0 20 20" fill="none" id="star-empty" xmlns="http://www.w3.org/2000/svg"><path d="M10 1l3 6 6 .75-4.12 4.62L16 19l-6-3-6 3 1.13-6.63L1 7.75 7 7l3-6z" fill="#565656"/></svg><svg viewBox="0 0 20 20" fill="none" id="star-filled" xmlns="http://www.w3.org/2000/svg"><path d="M10 1l3 6 6 .75-4.12 4.62L16 19l-6-3-6 3 1.13-6.63L1 7.75 7 7l3-6z" fill="#FFBB4E"/></svg><svg viewBox="0 0 20 20" fill="none" id="star-half" xmlns="http://www.w3.org/2000/svg"><path d="M10 1l3 6 6 .75-4.12 4.62L16 19l-6-3-6 3 1.13-6.63L1 7.75 7 7l3-6z" fill="#565656"/><path d="M4 19l6-3V1L7 7l-6 .75 4.13 4.62L4 19z" fill="#FFBB4E"/></svg><svg viewBox="0 0 933 598" fill="none" id="subscribe-section" xmlns="http://www.w3.org/2000/svg"><g clip-path="url(#bxa)"><path d="M736.702-123.927c45.343 312.095-89.273 806.774-234.765 687.775-181.864-148.749 451.323-314.11 316.65-432.711-39.352-34.656-13.922 240.598-300.763 288.725-286.841 48.127-502.837 101.999-189.935-85.533C640.791 146.798 1010.89-163.21 634.787 42.365 258.685 247.941 232.071 465.574 416.073 374.041c184.002-91.532 274.362-56.653 268.584-184.236C678.879 62.221 531.313-44.923 423.751 89.751 316.189 224.425 195.243 443.175 268.546 502.344c73.302 59.169 269.442 67.509 310.229-23.062 40.786-90.571-175.798-496.874-328.338-390.199-154.597 108.114 44.419 517.014-3.419 626.265" stroke="#fff" stroke-width="2" stroke-linecap="round"/></g><defs><clipPath id="bxa"><path fill="#fff" d="M0 0h933v598H0z"/></clipPath></defs></svg><svg viewBox="0 0 400 308" fill="none" id="subscribe-section-mob" xmlns="http://www.w3.org/2000/svg"><g clip-path="url(#bya)"><path d="M537.515-57.99c34.067 234.49-67.075 606.163-176.389 516.754C224.484 347.003 700.223 222.76 599.038 133.65c-29.567-26.038-10.461 180.771-225.976 216.931-215.515 36.16-377.802 76.636-142.706-64.264 235.097-140.9 513.166-373.822 230.585-219.365C178.36 221.41 158.364 384.925 296.612 316.154c138.249-68.772 206.14-42.566 201.799-138.425-4.342-95.858-115.214-176.36-196.03-75.174-80.815 101.186-171.687 265.542-116.612 309.998 55.075 44.456 202.444 50.722 233.088-17.327 30.645-68.05-132.084-373.322-246.694-293.173-116.155 81.23 33.374 388.454-2.569 470.539" stroke="#fff" stroke-width="2" stroke-linecap="round"/></g><defs><clipPath id="bya"><path fill="#fff" d="M0 0h400v308H0z"/></clipPath></defs></svg><svg viewBox="0 0 58 57" fill="none" id="tactics-1" xmlns="http://www.w3.org/2000/svg"><path d="M1 28.5h55.106M28.553 1v55M28.553 56s9.175-12.15 9.175-27.5S28.553 1 28.553 1" stroke="#232A33" stroke-width="2" stroke-miterlimit="10"/><path d="M28.553 56c15.217 0 27.553-12.312 27.553-27.5S43.77 1 28.553 1 1 13.312 1 28.5 13.336 56 28.553 56z" stroke="#232A33" stroke-width="2" stroke-miterlimit="10"/><path d="M28.553 56S46.93 49.86 46.93 28.5 28.553 1 28.553 1" stroke="#232A33" stroke-width="2" stroke-miterlimit="10"/><path d="M28.555 56s-9.176-12.15-9.176-27.5S28.554 1 28.554 1" stroke="#232A33" stroke-width="2" stroke-miterlimit="10"/><path d="M28.551 56s-18.377-6.14-18.377-27.5S28.55 1 28.55 1" stroke="#232A33" stroke-width="2" stroke-miterlimit="10"/><path d="M3.895 40.832c2.945-1.249 10.817-3.928 24.633-3.928 13.815 0 21.688 2.68 24.633 3.928M10.41 49.21c2.867-1.353 8.498-3.175 18.143-3.175 9.54 0 15.17 1.796 18.064 3.123M3.895 16.194c2.945 1.249 10.817 3.929 24.633 3.929 13.815 0 21.688-2.68 24.633-3.929M10.41 7.817c2.867 1.352 8.498 3.174 18.143 3.174 9.54 0 15.17-1.796 18.064-3.122" stroke="#232A33" stroke-width="2" stroke-miterlimit="10"/></svg><svg viewBox="0 0 109 109" fill="none" id="tactics-2" xmlns="http://www.w3.org/2000/svg"><path d="M38.575 44.906c-1.401-3.825 2.317-7.564 6.178-6.166l30.116 11.047 29.915 10.99c3.861 1.428 4.262 6.737.658 8.707l-23.309 12.73-12.755 23.265c-1.974 3.625-7.293 3.226-8.723-.657L49.644 74.964 38.575 44.906z" fill="#FFBB4E" stroke="#FFBB4E" stroke-width="2" stroke-miterlimit="10"/><path d="M42.695 5l4.862 19.468 13.985-14.415-5.52 19.267 19.306-5.509L60.883 37.77l19.506 4.852-19.505 4.882 14.443 13.93-19.306-5.51 5.52 19.297-13.985-14.415-4.862 19.439-4.89-19.44-13.958 14.416 5.52-19.297-19.333 5.51 14.443-13.93L5 42.623l19.477-4.853L10.034 23.81l19.333 5.51-5.52-19.268 13.957 14.415L42.694 5z" fill="#fff" stroke="#232A33" stroke-width="2" stroke-miterlimit="10"/><path fill-rule="evenodd" clip-rule="evenodd" d="M65.496 46.35l-4.611 1.154 14.443 13.93-19.306-5.51 5.52 19.297-13.985-14.415-1.265 5.056-7.717-20.956c-1.401-3.825 2.317-7.564 6.178-6.166l20.743 7.61z" fill="#FFBB4E"/><path d="M65.496 46.35l.243.97 3.154-.79-3.052-1.12-.344.94zm-4.611 1.154l-.243-.97-1.75.437 1.298 1.252.695-.72zm14.443 13.93l-.275.961 3.852 1.1-2.883-2.781-.695.72zm-19.306-5.51l.275-.961-1.731-.494.495 1.73.962-.274zm5.52 19.297l-.717.696 2.775 2.86-1.096-3.831-.962.275zM47.557 60.806l.718-.697-1.252-1.29-.436 1.744.97.243zm-1.265 5.056l-.938.346 1.12 3.045.788-3.148-.97-.243zm-7.717-20.956l-.939.344.001.002.938-.346zm6.178-6.166l.344-.938-.003-.002-.341.94zm20.5 6.64l-4.611 1.154.485 1.94 4.612-1.154-.485-1.94zm-5.063 2.843l14.443 13.93 1.389-1.44-14.443-13.93-1.389 1.44zm15.412 12.25l-19.305-5.51-.549 1.923 19.305 5.51.549-1.924zM55.06 56.2l5.52 19.296 1.923-.55-5.52-19.297-1.923.55zm7.199 18.325L48.275 60.109l-1.436 1.393 13.986 14.415 1.435-1.392zM46.587 60.563l-1.265 5.057 1.94.485 1.265-5.057-1.94-.485zm.643 4.954l-7.716-20.956-1.877.69 7.717 20.957 1.877-.691zm-7.716-20.955c-1.107-3.023 1.832-5.992 4.898-4.881l.682-1.88c-4.656-1.687-9.153 2.822-7.458 7.45l1.878-.689zm4.895-4.883l20.743 7.61.689-1.878-20.744-7.61-.688 1.878z" fill="#fff"/></svg><svg viewBox="0 0 40 40" fill="none" id="target" xmlns="http://www.w3.org/2000/svg"><path d="M20 25a5 5 0 1 0 0-10 5 5 0 0 0 0 10z" fill="#121212"/><path d="M21.666 6.782V3.333h-3.333v3.449A13.347 13.347 0 0 0 6.781 18.333H3.333v3.334h3.448a13.345 13.345 0 0 0 11.552 11.551v3.449h3.333v-3.449a13.344 13.344 0 0 0 11.552-11.551h3.448v-3.334h-3.448A13.347 13.347 0 0 0 21.666 6.782zM20 30c-5.515 0-10-4.485-10-10s4.485-10 10-10 10 4.485 10 10-4.485 10-10 10z" fill="#121212"/></svg><svg viewBox="0 0 17 15" fill="none" id="tg" xmlns="http://www.w3.org/2000/svg"><path d="M.287 6.793l3.75 1.4 1.45 4.666c.094.3.46.41.702.211l2.09-1.704a.624.624 0 0 1 .76-.02l3.769 2.736c.26.189.627.046.692-.267L16.262.533A.442.442 0 0 0 15.67.03L.283 5.966a.442.442 0 0 0 .004.827zm4.967.654l7.327-4.513c.132-.08.267.098.154.203l-6.047 5.62c-.212.199-.35.463-.388.75l-.206 1.527c-.028.204-.314.224-.37.027l-.792-2.784a.738.738 0 0 1 .322-.83z" fill="#fff"/></svg><svg viewBox="0 0 17 14" fill="none" id="tw" xmlns="http://www.w3.org/2000/svg"><path d="M15.902 1.537c-.255.114-.518.21-.786.287.317-.36.56-.782.708-1.245a.262.262 0 0 0-.384-.306 6.193 6.193 0 0 1-1.83.723A3.51 3.51 0 0 0 11.163 0 3.497 3.497 0 0 0 7.7 3.944 8.943 8.943 0 0 1 1.562.688a.262.262 0 0 0-.43.034 3.491 3.491 0 0 0-.473 1.756c0 .842.3 1.64.831 2.264a2.96 2.96 0 0 1-.467-.209.262.262 0 0 0-.39.224v.046c0 1.257.676 2.388 1.71 3.004a3.01 3.01 0 0 1-.266-.038.262.262 0 0 0-.3.338 3.492 3.492 0 0 0 2.56 2.34 6.18 6.18 0 0 1-3.304.944c-.247 0-.496-.015-.74-.044a.263.263 0 0 0-.172.482 9.42 9.42 0 0 0 5.094 1.493c3.556 0 5.78-1.677 7.02-3.084 1.547-1.754 2.434-4.076 2.434-6.37 0-.096-.002-.193-.005-.29a6.791 6.791 0 0 0 1.563-1.655.262.262 0 0 0-.325-.386z" fill="#fff"/></svg><svg viewBox="0 0 17 12" fill="none" id="yt" xmlns="http://www.w3.org/2000/svg"><path d="M15.936 1.75A2.02 2.02 0 0 0 14.502.342C13.229 0 8.135 0 8.135 0S3.042 0 1.77.33A2.06 2.06 0 0 0 .335 1.75C0 3 0 5.593 0 5.593S0 8.2.335 9.436a2.02 2.02 0 0 0 1.434 1.408c1.287.342 6.367.342 6.367.342s5.093 0 6.366-.329a2.02 2.02 0 0 0 1.434-1.408c.335-1.25.335-3.843.335-3.843s.014-2.605-.335-3.856zM6.514 7.988v-4.79l4.235 2.395-4.235 2.395z" fill="#fff"/></svg></svg>